<svg width="1501" height="1500" viewBox="0 0 1501 1500" fill="none" xmlns="http://www.w3.org/2000/svg">
<path fill-rule="evenodd" clip-rule="evenodd" d="M569.192 122.179L569.193 122.178C596.157 93.7712 621.958 66.5901 650.174 42.1739C708.813 -8.49093 772.238 -15.3226 833.922 31.5907C867.252 56.8899 896.901 86.9249 927.495 117.917L927.496 117.917L927.496 117.918L927.497 117.918L927.497 117.919L927.498 117.919L927.498 117.92L927.499 117.92L927.499 117.921L927.5 117.922C941.077 131.676 954.84 145.618 969.193 159.418C963.096 160.014 957.492 160.664 952.224 161.274L952.223 161.274L952.221 161.274C940.407 162.643 930.283 163.816 920.083 163.761C913.268 162.924 906.953 159.757 902.21 154.797C888.831 141.87 875.679 128.694 862.528 115.518L862.526 115.515L862.52 115.509L862.517 115.506L862.516 115.505L862.515 115.504L862.514 115.503L862.513 115.502L862.512 115.501L862.511 115.501L862.51 115.5C850.559 103.526 838.609 91.5529 826.489 79.7677C781.728 35.9346 719.648 35.1843 674.175 78.1486C649.791 101.21 626.067 124.904 603.001 149.229C592.799 159.97 583.547 166.802 567.414 162.379C560.493 160.632 553.075 161.015 544.515 161.457C540.31 161.674 535.829 161.905 530.996 161.905C544.203 148.504 556.82 135.212 569.192 122.179ZM438.058 686.339C455.992 686.191 473.927 686.044 491.858 686.044L496.999 679.923C494.87 678.387 492.615 676.958 490.36 675.529C485.368 672.365 480.376 669.202 476.754 664.877C470.615 656.877 462.5 650.607 453.205 646.682C443.909 642.757 433.752 641.311 423.729 642.487C400.004 644.146 376.279 643.738 352.554 643.331C344.646 643.195 336.738 643.06 328.829 643C267.145 642.448 220.565 597.943 219.695 536.656C218.667 466.838 218.549 397.061 219.695 327.362C219.68 313.482 222.406 299.736 227.719 286.91C233.031 274.085 240.825 262.432 250.655 252.619C260.484 242.806 272.155 235.027 285 229.726C297.844 224.425 311.61 221.708 325.508 221.728C395.443 220.702 465.3 220.702 535.077 221.728C595.654 222.637 640.573 268.523 641.245 328.665C641.361 336.727 641.664 344.81 641.968 352.889L641.968 352.896V352.897C642.811 375.327 643.652 397.718 640.455 419.491C635.326 454.156 654.942 471.456 677.905 491.708C680.081 493.627 682.286 495.572 684.504 497.561C684.504 477.764 684.54 458.381 684.576 439.273C684.645 401.86 684.713 365.499 684.504 329.139C684.029 245.382 620.328 179.949 536.184 178.488C465.669 177.224 395.18 177.224 324.717 178.488C242.273 179.949 178.137 243.289 176.516 325.309C175.132 396.39 175.29 467.47 176.516 538.551C177.94 618.201 239.98 683.161 318.114 685.688C358.028 686.997 398 686.668 437.976 686.339H437.978H437.981H437.984H437.987H437.989H437.992H437.995H437.998H438H438.003H438.006H438.009H438.011H438.014H438.017H438.02H438.022H438.025H438.028H438.031H438.033H438.036H438.039H438.042H438.044H438.047H438.05H438.052H438.055H438.058ZM814.921 437.355C815.193 456.115 815.464 474.877 815.464 493.616L820.328 496.617C822.174 494.412 823.926 492.093 825.678 489.773C829.479 484.742 833.279 479.711 838.043 475.846C853.622 463.209 859.395 448.361 858.288 427.945C856.586 395.918 857.235 363.783 857.883 331.712L857.884 331.657L857.885 331.602C857.914 330.177 857.943 328.752 857.971 327.327C859.078 268.803 902.89 223.035 961.649 221.851C1032.82 220.482 1104 220.482 1175.17 221.851C1233.93 223.035 1278.3 268.527 1279.05 327.169C1279.92 397.538 1280.04 467.987 1279.05 538.357C1278.18 597.71 1232.15 642.096 1172.48 642.846C1164.45 642.947 1156.45 643.13 1148.46 643.312L1148.45 643.312L1148.44 643.312L1148.43 643.312L1148.42 643.313L1148.42 643.313L1148.41 643.313L1148.4 643.313L1148.39 643.313L1148.38 643.314L1148.37 643.314L1148.36 643.314L1148.35 643.314L1148.34 643.314L1148.33 643.314L1148.32 643.315L1148.31 643.315L1148.3 643.315L1148.29 643.315L1148.28 643.315L1148.27 643.316L1148.26 643.316L1148.25 643.316L1148.24 643.316L1148.23 643.316L1148.22 643.316L1148.22 643.317L1148.21 643.317L1148.2 643.317L1148.19 643.317L1148.18 643.317C1122.07 643.912 1096.09 644.504 1069.68 642.333C1044.67 640.278 1032.45 653.793 1018.79 668.899C1013.55 674.697 1008.1 680.729 1001.62 686.205C1022.34 686.205 1042.35 686.242 1061.89 686.278C1099.64 686.347 1135.65 686.414 1171.65 686.205C1256.55 685.771 1321.87 620.811 1322.38 536.146C1322.73 467.092 1322.73 398.012 1322.38 328.906C1322.07 245.979 1259.12 180.663 1175.77 178.847C1104.59 177.307 1033.42 177.544 962.242 178.847C885.927 180.15 820.565 237.567 816.216 310.465C813.694 352.569 814.307 394.958 814.921 437.355ZM1062.07 816.023H1062.07H1062.08H1062.08H1062.08H1062.08H1062.08H1062.08H1062.08H1062.09H1062.09H1062.09H1062.09H1062.09H1062.09H1062.09H1062.1H1062.1H1062.1H1062.1H1062.1H1062.1H1062.1H1062.11H1062.11H1062.11H1062.11H1062.11H1062.11H1062.11H1062.12C1103.24 815.646 1144.33 815.269 1185.33 816.831C1257.14 819.555 1319.77 881.988 1321.59 953.779C1323.73 1030.68 1323.73 1107.62 1321.59 1184.59C1319.57 1257.89 1255.2 1320.87 1181.77 1322.41C1106.09 1323.99 1030.37 1323.99 954.608 1322.41C883.433 1320.83 819.06 1258.79 815.62 1187.95C813.842 1151.62 814.145 1115.22 814.449 1078.77V1078.75V1078.74V1078.73V1078.72V1078.71V1078.7V1078.69V1078.68V1078.67V1078.66V1078.65L814.449 1078.64C814.584 1062.43 814.72 1046.22 814.671 1029.99V1003.89C818.752 1007.93 822.905 1011.7 826.952 1015.38C845.688 1032.39 862.146 1047.33 858.601 1077.34C855.859 1100.55 856.591 1124.28 857.321 1147.95L857.321 1147.95L857.321 1147.96L857.321 1147.97L857.322 1147.97L857.322 1147.98L857.322 1147.99L857.322 1147.99L857.322 1148L857.322 1148.01L857.323 1148.02L857.323 1148.02L857.323 1148.03L857.323 1148.04L857.323 1148.04L857.324 1148.05L857.324 1148.06L857.324 1148.06L857.324 1148.07L857.324 1148.08L857.324 1148.08L857.325 1148.09L857.325 1148.1L857.325 1148.11L857.325 1148.11L857.325 1148.12L857.326 1148.13L857.326 1148.13L857.326 1148.14L857.326 1148.15C857.573 1156.15 857.82 1164.15 857.929 1172.12C858.799 1234.23 903.243 1279.21 965.205 1279.72C1034.38 1280.28 1103.52 1280.28 1172.64 1279.72C1233.37 1279.13 1278.41 1234.07 1279 1173.1C1279.64 1104.02 1279.64 1034.97 1279 965.942C1278.41 904.813 1234.09 860.427 1172.95 859.124C1169.96 859.061 1166.96 858.996 1163.97 858.931L1163.91 858.93L1163.84 858.928L1163.78 858.927C1134.56 858.292 1105.26 857.656 1076.16 859.479C1053.66 860.901 1036.93 854.74 1022.94 837.444C1019.43 833.16 1014.54 829.997 1009.64 826.827C1007.36 825.351 1005.08 823.873 1002.93 822.28L1007.59 816.357C1025.71 816.357 1043.83 816.19 1061.95 816.023H1061.95H1061.96H1061.96H1061.97H1061.97H1061.98H1061.98H1061.98H1061.99H1061.99H1062H1062H1062.01H1062.01H1062.01H1062.02H1062.02H1062.03H1062.03H1062.04H1062.04H1062.05H1062.05H1062.05H1062.06H1062.06H1062.07H1062.07ZM684.231 1065.11C683.814 1046.01 683.398 1026.91 683.398 1007.85L678.929 1004.3C677.219 1006.43 675.602 1008.68 673.984 1010.93L673.984 1010.93L673.983 1010.93L673.983 1010.93L673.982 1010.93L673.982 1010.93L673.981 1010.94L673.981 1010.94L673.98 1010.94L673.979 1010.94L673.979 1010.94L673.978 1010.94L673.978 1010.94L673.977 1010.94L673.977 1010.94L673.976 1010.94L673.976 1010.94L673.975 1010.94L673.975 1010.94L673.974 1010.95L673.973 1010.95L673.973 1010.95L673.972 1010.95L673.972 1010.95L673.971 1010.95L673.971 1010.95L673.97 1010.95C670.319 1016.03 666.663 1021.12 661.927 1024.87C644.805 1038.22 639.586 1054.68 640.851 1076.21C642.283 1101.08 641.901 1125.95 641.52 1150.82C641.417 1157.54 641.314 1164.26 641.246 1170.98C640.653 1234.01 595.893 1279.34 532.943 1279.81C464.404 1280.31 395.866 1280.31 327.328 1279.81C265.604 1279.18 220.013 1234.28 219.34 1172.56C218.655 1104.11 218.655 1035.66 219.34 967.215C219.854 905.257 264.853 860.357 326.616 859.212C334.036 859.078 341.475 858.813 348.913 858.548L348.921 858.548L348.929 858.548L348.936 858.547L348.944 858.547L348.951 858.547L348.958 858.547L348.965 858.547L348.971 858.546L348.978 858.546L348.984 858.546L348.991 858.546L348.997 858.546L349.003 858.546L349.009 858.545L349.015 858.545L349.021 858.545L349.026 858.545L349.032 858.545L349.038 858.544L349.043 858.544L349.048 858.544L349.054 858.544L349.059 858.544L349.064 858.544L349.07 858.543L349.075 858.543L349.08 858.543L349.086 858.543C372.111 857.723 395.129 856.904 417.561 859.883C453.18 864.81 470.817 844.37 491.609 820.273C492.814 818.876 494.03 817.467 495.26 816.05C475.664 816.05 456.503 816.005 437.615 815.961H437.581H437.548H437.515H437.482H437.449H437.417H437.385H437.353H437.321H437.289H437.258H437.227H437.196H437.165H437.134H437.104H437.074H437.043H437.013H436.983H436.954H436.925H436.895H436.866H436.837H436.808H436.78H436.751C399.231 815.874 362.782 815.789 326.142 816.05C243.184 816.801 178.02 879.983 176.438 962.911C175.067 1033.99 175.067 1105.07 176.438 1176.15C178.059 1259.24 243.302 1322.5 326.339 1322.9C395.51 1323.13 464.668 1323.13 533.813 1322.9C610.048 1322.54 675.45 1269.55 682.251 1194.16C686.116 1151.43 685.173 1108.26 684.231 1065.11ZM1340.29 953.261C1340.9 958.525 1341.55 964.112 1342.15 970.168C1355.99 955.799 1369.87 941.932 1383.57 928.242L1383.58 928.23L1383.58 928.229L1383.58 928.228C1414.23 897.602 1444 867.863 1470.42 835.391C1509.8 787.016 1509.84 714.317 1470.66 666.456C1444.19 634.088 1414.47 604.385 1383.72 573.648L1383.72 573.646L1383.72 573.646L1383.71 573.645L1383.71 573.644L1383.71 573.644L1383.71 573.643L1383.71 573.642L1383.71 573.641L1383.71 573.641L1383.71 573.64L1383.71 573.639L1383.71 573.638L1383.71 573.638L1383.71 573.637L1383.71 573.636L1383.71 573.635L1383.7 573.635L1383.7 573.634L1383.7 573.633L1383.7 573.633L1383.7 573.632L1383.7 573.631L1383.7 573.63L1383.7 573.63L1383.7 573.629L1383.7 573.628L1383.7 573.627C1369.85 559.783 1355.78 545.729 1341.71 531.126C1341.34 536.29 1341.16 540.907 1340.99 545.132C1340.65 553.54 1340.38 560.398 1338.83 566.942C1335.07 582.857 1340.01 593.677 1351.88 604.655C1370.71 621.928 1388.62 640.196 1406.52 658.453L1406.52 658.455C1411.17 663.195 1415.82 667.934 1420.48 672.655C1466.47 719.253 1466.59 782.199 1420.72 828.875C1410 839.785 1399.16 850.564 1388.33 861.342L1388.31 861.356L1388.31 861.362L1388.3 861.369L1388.29 861.375L1388.29 861.382L1388.28 861.388L1388.27 861.394L1388.27 861.401L1388.26 861.407L1388.26 861.414L1388.25 861.42L1388.24 861.427L1388.24 861.433L1388.23 861.439L1388.22 861.454L1388.21 861.46L1388.21 861.461L1388.21 861.463L1388.21 861.464L1388.2 861.466L1388.2 861.467L1388.2 861.469L1388.2 861.47L1388.2 861.472L1388.2 861.473L1388.2 861.474L1388.19 861.476L1388.19 861.477L1388.19 861.479L1388.19 861.48L1388.19 861.482L1388.19 861.483L1388.19 861.485L1388.18 861.486L1388.18 861.488L1388.18 861.489L1388.18 861.491L1388.18 861.492L1388.18 861.494L1388.18 861.495L1388.17 861.496C1374.35 875.245 1360.53 888.991 1346.97 902.996C1342.43 907.696 1337.8 914.843 1337.8 920.885C1337.72 931.125 1338.91 941.364 1340.29 953.261ZM154.487 967.488C141.611 954.135 128.448 941.021 115.286 927.908C85.2816 898.015 55.2839 868.128 28.7059 835.436C-12.3775 784.85 -7.75119 711.361 32.3042 659.59C37.205 653.397 42.4874 647.515 48.1207 641.978C83.7079 606.201 119.295 570.581 157.136 532.829C157.694 538.215 158.303 543.334 158.89 548.267L158.891 548.273L158.891 548.277L158.892 548.279C160.301 560.126 161.583 570.902 161.723 581.717C161.723 587.088 157.294 593.564 153.142 597.829C140.383 610.897 127.435 623.787 114.487 636.677L114.486 636.678L114.483 636.681L114.477 636.686C102.27 648.839 90.0629 660.992 78.014 673.293C32.9368 719.18 32.8577 782.244 77.7372 828.091C79.0044 829.383 80.2716 830.675 81.539 831.967L81.541 831.969L81.5422 831.97C103.29 854.143 125.082 876.361 147.686 897.592C158.639 907.899 164.649 917.337 160.339 933.133C158.513 939.855 158.979 947.215 159.444 954.579C159.654 957.9 159.865 961.222 159.865 964.487L154.487 967.488ZM924.663 1380.38C936.686 1367.23 948.676 1354.12 960.862 1341.33C952.037 1341.47 943.219 1340.77 934.527 1339.24C917.327 1334.89 906.255 1341.53 894.986 1353.61C877.203 1372.67 858.529 1390.96 839.856 1409.24C835.942 1413.07 832.028 1416.9 828.122 1420.74C781.305 1466.75 718.395 1466.9 671.538 1421.02C660.076 1409.77 648.74 1398.41 637.406 1387.05L637.39 1387.03C624.096 1373.7 610.805 1360.38 597.319 1347.25C593.088 1343.03 586.643 1338.17 581.226 1338.17C567.68 1338.63 554.165 1339.78 540.735 1341.6C552.402 1354.01 563.96 1366.9 575.63 1379.91L575.652 1379.93L575.654 1379.94L575.656 1379.94C602.622 1410.01 630.185 1440.75 661.06 1467.69C711.158 1511.37 790.597 1510.46 839.945 1466.79C870.129 1440.04 897.48 1410.12 924.662 1380.38L924.663 1380.38ZM583.399 492.666L604.593 452.94C610.204 458.595 615.754 464.199 621.262 469.762L621.287 469.786L621.292 469.792C636.928 485.582 652.23 501.036 667.662 516.359C718.71 567.182 780.276 567.261 831.284 516.557C843.897 503.985 856.39 491.293 869.41 478.066L869.411 478.064L869.453 478.022L869.461 478.014L869.481 477.994L869.49 477.984C877.588 469.758 885.889 461.325 894.55 452.584C896.433 456.148 898.34 459.499 900.18 462.732C904.212 469.817 907.923 476.338 910.367 483.307C911.237 486.304 911.43 489.456 910.931 492.536C910.432 495.616 909.253 498.547 907.48 501.117C889.093 520.861 870.232 540.211 850.303 558.337C823.092 583.304 787.54 597.248 750.589 597.445C713.637 597.642 677.938 584.079 650.461 559.403C634.452 545.033 619.473 529.615 604.08 513.772L604.079 513.771L604.078 513.77L604.077 513.769L604.076 513.768L604.065 513.757L604.064 513.756C597.297 506.79 590.449 499.743 583.399 492.666ZM874.817 1030.01L874.836 1030.03C880.974 1036.43 887.215 1042.94 893.629 1049.58C897.361 1042.12 901.479 1034.86 905.966 1027.82C915.891 1014.48 914.23 1004.41 901.26 993.27C891.056 984.492 881.655 974.818 872.243 965.131L872.242 965.131L872.242 965.13L872.241 965.13L872.241 965.129L872.24 965.129L872.24 965.128L872.239 965.128L872.239 965.127L872.238 965.127L872.237 965.126L872.237 965.125L872.236 965.125L872.236 965.124L872.235 965.124L872.235 965.123L872.234 965.123L872.234 965.122L872.233 965.122L872.232 965.121L872.232 965.12L872.231 965.12L872.231 965.119C865.598 958.294 858.96 951.463 852.031 944.935C797.662 894.112 714.032 889.65 657.172 937.037C639.39 951.904 623.849 969.453 607.862 987.507C600.493 995.829 593.029 1004.26 585.207 1012.58L604.345 1048.48L664.526 988.373C719.845 933.128 779.315 933.246 834.95 988.965C848.238 1002.29 861.266 1015.88 874.789 1029.98L874.8 1029.99L874.813 1030.01L874.817 1030.01ZM1008.93 585.425L1048.48 606.473C1043.13 611.662 1038 616.819 1032.97 621.884L1032.95 621.899L1032.94 621.91C1022.16 632.755 1011.8 643.18 1000.59 652.597C927.084 714.555 929.655 789.388 1000.04 848.464C1011.69 858.231 1022.67 868.867 1034.41 880.231C1039.28 884.947 1044.27 889.788 1049.5 894.745C1045.17 897.07 1041.24 899.282 1037.56 901.351L1037.56 901.352L1037.55 901.354C1029.17 906.066 1022.1 910.042 1014.63 912.95C1012.07 913.435 1009.43 913.332 1006.92 912.648C1004.4 911.963 1002.08 910.716 1000.12 909.001C999.138 908.063 998.158 907.126 997.178 906.188L997.177 906.187C978.177 888.009 959.114 869.769 941.517 850.28C916.908 823.179 903.244 787.922 903.171 751.337C903.098 714.751 916.621 679.44 941.122 652.241C955.295 636.368 970.826 621.682 986.96 606.426L986.963 606.424L986.964 606.422L986.966 606.421C994.19 599.589 1001.54 592.643 1008.93 585.425ZM457.667 602.837C455.945 603.867 454.005 605.029 451.685 606.395C454.493 609.189 457.29 611.97 460.078 614.741L460.08 614.743L460.082 614.745C478.212 632.77 495.905 650.359 513.211 668.156C565.88 720.677 565.88 781.293 512.895 834.011C498.692 848.279 483.994 862.17 468.743 876.583C462.466 882.515 456.096 888.535 449.628 894.706C458.143 898.803 466.432 903.351 474.46 908.33C485.848 916.504 494.271 915.991 504.196 904.657C513.336 894.232 523.307 884.539 533.278 874.848L533.279 874.847C540.302 868.02 547.325 861.194 554.057 854.111C603.326 802.222 610.72 722.928 568.134 665.905C552.842 645.397 534.551 627.149 516.31 608.95L516.308 608.949C508.136 600.796 499.974 592.652 492.096 584.32C489.201 585.842 486.473 587.274 483.869 588.641L483.865 588.644C476.405 592.56 469.965 595.941 463.547 599.366C461.724 600.409 459.877 601.515 457.667 602.837ZM888.024 317.905L888.027 317.909C891.475 323.474 894.655 328.606 897.465 333.923C899.781 338.274 902.097 342.626 904.414 346.977L906.074 350.096C927.294 389.955 948.513 429.812 969.272 469.884C982.735 496.492 1004.36 518.105 1031 531.567C1067.02 550.245 1102.9 569.236 1138.76 588.223L1138.83 588.261L1138.9 588.299L1138.97 588.336C1147.24 592.713 1155.51 597.09 1163.78 601.463C1169.36 604.428 1174.8 607.641 1181.41 611.541L1181.42 611.542L1181.42 611.546L1181.44 611.555L1181.47 611.572L1181.49 611.584C1185.07 613.698 1189 616.014 1193.47 618.601C1192.82 618.773 1192.18 618.944 1191.53 619.114C1166.87 625.646 1146.51 631.036 1125.78 620.299C1086.6 600.028 1047.58 579.493 1008.7 558.696C979.93 543.506 956.482 519.923 941.475 491.09C922.442 455.076 903.357 419.061 884.219 383.047C871.961 359.985 871.328 339.372 883.072 309.834C884.77 312.651 886.42 315.315 888.013 317.886L888.022 317.9L888.024 317.905ZM388.377 888.585C362.912 873.223 337.566 873.697 304.668 883.017C309.27 885.618 313.273 887.916 316.905 890.001L316.91 890.004C323.419 893.74 328.735 896.792 334.166 899.681C345.324 905.597 356.472 911.536 367.621 917.475L367.623 917.476L367.625 917.477C400.606 935.046 433.593 952.618 466.867 969.617C494.69 983.631 517.22 1006.27 531.082 1034.14C549.359 1069.66 568.141 1104.92 586.922 1140.18C592.235 1150.15 597.548 1160.12 602.849 1170.1C605.423 1174.92 608.332 1179.55 611.244 1184.19L611.247 1184.19C612.583 1186.32 613.92 1188.45 615.226 1190.6C623.252 1164.77 629.381 1141.75 614.633 1117.39C596.251 1087.01 580.307 1055.11 564.409 1023.31L562.754 1020.01C545.386 984.194 516.497 955.232 480.706 937.749L479.52 937.156L479.519 937.155L479.518 937.155C448.714 921.754 417.852 906.324 388.377 888.585ZM343.858 596.492L343.862 596.49C370.522 581.663 396.09 567.443 422.848 556.045C484.967 529.626 528.304 487.452 554.164 425.019C563.426 402.656 575.335 381.373 587.244 360.091C592.368 350.934 597.492 341.778 602.405 332.535C604.918 327.942 607.607 323.461 610.989 317.825L610.99 317.822L610.994 317.816L610.997 317.81C612.935 314.581 615.099 310.974 617.589 306.749C617.833 307.859 618.077 308.959 618.318 310.05C624.247 336.832 628.951 358.078 616.679 380.199C596.909 415.739 578.008 451.833 559.265 487.965C543.339 519.251 517.934 544.72 486.667 560.744C461.09 574.084 435.634 587.546 410.17 601.013L410.169 601.014L410.168 601.014L410.167 601.014L410.167 601.015L410.166 601.015L410.165 601.016L410.165 601.016L410.164 601.016L410.163 601.017L410.162 601.017L410.162 601.017L410.161 601.018L410.16 601.018L410.159 601.018L410.159 601.019L410.158 601.019L410.157 601.02L410.108 601.046C400.163 606.305 390.217 611.565 380.262 616.819C358.197 628.429 336.094 629.061 306.28 617.056C319.175 610.22 331.622 603.298 343.839 596.503L343.845 596.5L343.853 596.495L343.858 596.492ZM886.079 1114.31C871.251 1139.34 873.229 1163.67 881.769 1194.98C884.155 1190.8 886.292 1187.1 888.244 1183.72L888.248 1183.71C892.379 1176.56 895.685 1170.83 898.772 1165.01C903.776 1155.62 908.789 1146.23 913.802 1136.83L913.802 1136.83L913.803 1136.83L913.803 1136.83L913.804 1136.83L913.804 1136.83L913.805 1136.83L913.805 1136.83L913.806 1136.83L913.806 1136.82L913.807 1136.82L913.808 1136.82L913.808 1136.82L913.809 1136.82L913.809 1136.82L913.81 1136.82L913.81 1136.82C932.284 1102.21 950.755 1067.61 968.76 1032.76C982.46 1005.57 1004.56 983.498 1031.79 969.816C1066.98 951.768 1101.85 933.24 1136.71 914.718C1146.55 909.492 1156.39 904.266 1166.23 899.052C1171.95 896.102 1177.43 892.86 1184.08 888.932C1187.22 887.076 1190.62 885.066 1194.42 882.861C1163.19 874.766 1138.75 872.317 1113.64 887.205C1090.11 901.078 1065.84 913.547 1041.58 926.009L1041.57 926.01L1041.57 926.014L1041.56 926.018L1041.55 926.021L1041.55 926.025L1041.54 926.029L1041.53 926.032L1041.52 926.036L1041.52 926.04L1041.51 926.043L1041.5 926.047L1041.5 926.051L1041.49 926.054L1041.48 926.058L1041.48 926.062L1041.47 926.065L1041.46 926.069C1031.23 931.324 1021 936.578 1010.83 941.937C980.807 957.456 956.35 981.908 940.844 1011.91C936.09 1020.97 931.405 1030.07 926.719 1039.17L926.718 1039.17C913.673 1064.51 900.625 1089.85 886.079 1114.31ZM523.412 1070.16C525.089 1073.31 526.903 1076.36 528.697 1079.39C533.081 1086.77 537.349 1093.97 539.229 1101.75C540.652 1107.48 535.472 1116.84 530.49 1121.85C499.569 1153.05 488.299 1189.34 499.925 1231.91C503.247 1241.72 507.21 1251.29 511.787 1260.58C511.227 1260.94 510.742 1261.3 510.305 1261.64C509.478 1262.27 508.822 1262.77 508.149 1262.79C460.937 1264.65 455.322 1259.71 452.356 1211.65C448.719 1151.59 477.346 1107.44 523.412 1070.16ZM1203.48 454.049C1146.66 452.983 1105.06 481.376 1069.04 524.814C1074.87 527.37 1080.48 530.408 1085.8 533.897C1100.83 545.98 1112.1 543.967 1125.07 529.158C1133.56 519.013 1144.25 510.936 1156.34 505.544C1168.43 500.151 1181.59 497.585 1194.82 498.04C1210.49 498.568 1226.02 502.115 1241.46 505.645C1248.01 507.139 1254.53 508.63 1261.05 509.887C1264.73 461.947 1259.9 456.774 1209.37 454.049H1203.48ZM987.667 240.878C987.774 240.795 987.889 240.683 988.009 240.564C988.289 240.291 988.601 239.985 988.932 239.93C1034.92 234.876 1041.6 240.128 1045.99 286.33C1051.84 347.934 1022.86 392.951 975.765 431.493C974.022 428.267 972.17 425.154 970.346 422.088C965.963 414.72 961.742 407.626 959.593 399.901C958.09 394.649 962.716 385.527 967.501 381.026C996.999 352.119 1009.73 317.843 1001.03 277.366C999.15 269.222 995.886 261.301 992.587 253.298C990.895 249.194 989.195 245.068 987.667 240.878ZM954.999 1109.05C1004.46 1152.1 1018.15 1201.38 985.485 1262.67C993.505 1262.12 1001.56 1262.19 1009.57 1262.86C1030.13 1266.3 1038.07 1256.74 1042.66 1237.51C1057.41 1175.36 1031.23 1108.58 975.125 1070.99L954.999 1109.05ZM237.251 986.957C293.637 1015.9 341.244 1008.4 383.158 964.566C386.559 961.052 395.772 960.302 401.031 962.039C408.067 964.353 414.627 968.154 421.175 971.948C423.68 973.4 426.183 974.85 428.71 976.216C387.429 1033.44 324.716 1058.04 262.636 1043.66C243.854 1039.32 232.98 1032.21 236.737 1011.08C237.537 1003.07 237.709 995 237.251 986.957ZM453.731 320.256C459.03 367.011 486.353 400.695 521.94 430.826C544.506 398.286 544.407 398.165 521.833 370.45L520.833 369.222C493.154 335.064 487.974 297.233 505.017 256.559C506.428 253.218 507.909 249.928 509.458 246.485C510.253 244.72 511.066 242.914 511.897 241.04C462.114 236.38 457.488 239.855 452.862 286.887C451.986 298.01 452.277 309.193 453.731 320.256ZM429.853 525.208L390.865 545.782C348.2 496.025 298.061 482.599 239.422 513.559C239.061 512.916 238.756 512.441 238.514 512.065C238.147 511.494 237.927 511.151 237.88 510.794C233.016 466.132 239.619 457.918 285.329 454.404C346.262 449.704 391.458 477.821 429.853 525.208ZM1262.36 1002.63V987.227C1208.94 1011.35 1166.23 1011.71 1134.88 980.316C1112.14 957.61 1094.98 957.768 1072.6 975.104C1071.68 975.98 1070.84 976.946 1070.11 977.986C1109.77 1027.11 1158.56 1055.23 1224.04 1046.07C1261.41 1040.89 1262.75 1039.43 1262.36 1002.63ZM825.107 896.404L895.372 826.587L920.204 862.956L861.644 920.453L825.107 896.404ZM579.048 638.814L600.558 670.919C630.524 656.233 654.713 631.964 669.281 601.971L637.252 581.278L579.048 638.814ZM669.629 899.602L637.364 921.006L579.554 862.838C583.514 856.989 588.439 849.666 593.841 841.632L593.873 841.584L594.122 841.214L594.255 841.017L596.291 837.99L597.74 835.836L598.811 834.244C599.478 833.251 600.151 832.251 600.827 831.246C631.353 846.134 653.141 868.761 669.629 899.602ZM825.418 605.369L895.288 675.265L919.487 638.737L861.638 580.53L825.418 605.369ZM697.172 1228.87L697.173 1228.87C698.042 1226.02 698.8 1223.53 699.454 1221.45H799.375C800.772 1225.66 802.918 1232.23 805.499 1240.12L805.566 1240.33L805.575 1240.36C806.478 1243.12 807.434 1246.05 808.43 1249.09C769.205 1263.66 731.284 1263.11 690.715 1249.56C693.329 1241.5 695.46 1234.5 697.163 1228.9L697.165 1228.9L697.172 1228.87ZM1220.92 801.237L1248.6 809.53C1262.93 771.777 1263.03 730.107 1248.87 692.286L1220.92 700.895V801.237ZM799.882 280.015H699.447C698.625 277.37 697.605 274.129 696.434 270.41L696.422 270.37L696.415 270.348C694.828 265.306 692.965 259.389 690.945 252.886C729.696 237.761 767.616 238.67 807.83 252.017L799.882 280.015ZM250.697 809.532L277.941 801.121V700.66L250.025 692.525C236.62 732.449 235.473 770.675 250.697 809.532Z" fill="url(#paint0_linear_414_2041)"/>
<defs>
<linearGradient id="paint0_linear_414_2041" x1="0" y1="0" x2="1500" y2="1500" gradientUnits="userSpaceOnUse">
<stop stop-color="#D9BF83"/>
<stop offset="1" stop-color="#644821"/>
</linearGradient>
</defs>
</svg>
