<svg width="140" height="202" viewBox="0 0 140 202" fill="none" xmlns="http://www.w3.org/2000/svg">
    <defs>
<path fill-rule="evenodd" clip-rule="evenodd" d="M49.8159 13.7343C50.9362 12.5975 52.0065 11.4699 53.056 10.3643C55.3434 7.95454 57.532 5.64879 59.9256 3.57757C64.9 -0.720279 70.2802 -1.2998 75.5128 2.67981C78.3403 4.82601 80.8555 7.37398 83.4509 10.0031C84.6026 11.1699 85.7702 12.3526 86.9877 13.5233C86.4705 13.5739 85.995 13.629 85.548 13.6808C84.5458 13.7969 83.687 13.8964 82.8218 13.8917C82.2436 13.8207 81.7079 13.552 81.3056 13.1313C80.1706 12.0347 79.0549 10.9168 77.9393 9.79907L77.9391 9.79892L77.9391 9.79886L77.939 9.79881L77.939 9.79875L77.9389 9.7987L77.9389 9.79865L77.9388 9.79859L77.9388 9.79854L77.9388 9.79848L77.9387 9.79843L77.9387 9.79837L77.9386 9.79832L77.9386 9.79827L77.9385 9.79821L77.9385 9.79816L77.9384 9.7981L77.9384 9.79805L77.9383 9.79799L77.9383 9.79794L77.9382 9.79788L77.9382 9.79783L77.9382 9.79778L77.9381 9.79772L77.9381 9.79767L77.938 9.79761L77.938 9.79756L77.9379 9.7975C76.9242 8.78187 75.9104 7.76627 74.8822 6.76663C71.0852 3.0483 65.819 2.98465 61.9616 6.62928C59.8932 8.58559 57.8806 10.5955 55.924 12.659C55.0586 13.5702 54.2737 14.1497 52.9051 13.7745C52.3181 13.6262 51.6888 13.6587 50.9626 13.6962C50.6059 13.7147 50.2258 13.7343 49.8159 13.7343ZM41.9317 58.2215C43.453 58.209 44.9744 58.1965 46.4955 58.1965L46.9315 57.6773C46.7514 57.5473 46.5606 57.4264 46.3697 57.3055L46.3697 57.3055L46.3696 57.3055L46.3696 57.3054L46.3695 57.3054L46.3695 57.3054L46.3694 57.3053L46.3694 57.3053L46.3693 57.3053L46.3693 57.3052L46.3693 57.3052L46.3692 57.3051L46.3692 57.3051L46.3691 57.3051L46.3691 57.305L46.369 57.305L46.369 57.305L46.3689 57.3049L46.3689 57.3049L46.3688 57.3049L46.3688 57.3048L46.3687 57.3048L46.3687 57.3048L46.3687 57.3047L46.3686 57.3047L46.3686 57.3047L46.3685 57.3046L46.3685 57.3046L46.3684 57.3046L46.3684 57.3045L46.3683 57.3045C45.9449 57.0362 45.5214 56.7678 45.2141 56.401C44.6934 55.7223 44.0051 55.1904 43.2165 54.8575C42.428 54.5245 41.5664 54.4019 40.7161 54.5016C38.7035 54.6423 36.6909 54.6077 34.6784 54.5732C34.0075 54.5617 33.3367 54.5502 32.6659 54.5452C27.4332 54.4983 23.4819 50.723 23.4081 45.524C23.3209 39.6015 23.3108 33.6823 23.4081 27.7698C23.4068 26.5924 23.6381 25.4263 24.0887 24.3383C24.5394 23.2503 25.2006 22.2618 26.0344 21.4294C26.8682 20.597 27.8582 19.9371 28.9478 19.4875C30.0374 19.0378 31.2052 18.8072 32.3841 18.809C38.3167 18.7219 44.2425 18.7219 50.1617 18.809C55.3004 18.8861 59.1108 22.7786 59.1679 27.8804C59.1776 28.5644 59.2034 29.2504 59.2292 29.9359V29.9359C59.3007 31.8386 59.372 33.7381 59.1008 35.585C58.6657 38.5256 60.3297 39.9932 62.2777 41.7112L62.2784 41.7119L62.2787 41.7121C62.4629 41.8746 62.6497 42.0393 62.8374 42.2077C62.8374 40.5295 62.8405 38.8865 62.8435 37.2668L62.8435 37.2632V37.2621C62.8494 34.0887 62.8552 31.0046 62.8374 27.9206C62.7972 20.8156 57.3935 15.2649 50.2556 15.1409C44.2738 15.0337 38.2943 15.0337 32.317 15.1409C25.3234 15.2649 19.8828 20.638 19.7453 27.5956C19.6279 33.6254 19.6413 39.6551 19.7453 45.6848C19.866 52.4415 25.1289 57.9519 31.7569 58.1663C35.1451 58.2774 38.5382 58.2494 41.9317 58.2215ZM73.9004 37.1004C73.9234 38.6918 73.9465 40.2833 73.9465 41.8729L74.359 42.1275C74.5157 41.9405 74.6643 41.7437 74.8129 41.547L74.8129 41.5469C75.1353 41.1201 75.4577 40.6934 75.8617 40.3655C77.1833 39.2936 77.673 38.034 77.5791 36.3021C77.4348 33.5852 77.4898 30.8591 77.5448 28.1384L77.5523 27.7667C77.6462 22.8023 81.3627 18.9198 86.3471 18.8193C92.3848 18.7032 98.4225 18.7032 104.46 18.8193C109.445 18.9198 113.208 22.7788 113.272 27.7533C113.346 33.7228 113.356 39.6989 113.272 45.6683C113.198 50.7031 109.294 54.4684 104.232 54.532C103.543 54.5407 102.856 54.5564 102.17 54.572C99.9557 54.6224 97.7519 54.6726 95.511 54.4885C93.39 54.3142 92.3534 55.4606 91.1946 56.7421L91.1946 56.7421C90.7499 57.2339 90.2872 57.7456 89.7383 58.2101C91.4938 58.2101 93.1894 58.2132 94.8454 58.2163L94.8508 58.2163H94.8511H94.8513H94.8515H94.8518H94.852H94.8522H94.8525H94.8527H94.8529H94.8532H94.8534H94.8536H94.8539H94.8541H94.8543H94.8546H94.8548H94.855H94.8553H94.8555H94.8557H94.856H94.8562H94.8564H94.8567H94.8569H94.8571H94.8573H94.8575H94.8577C98.0574 58.2222 101.11 58.2278 104.162 58.2101C111.363 58.1733 116.904 52.6628 116.948 45.4807C116.977 39.623 116.977 33.763 116.948 27.9007C116.921 20.8661 111.581 15.3254 104.51 15.1713C98.4728 15.0407 92.4351 15.0608 86.3975 15.1713C79.9237 15.2819 74.3792 20.1525 74.0102 26.3364C73.7963 29.9068 73.8483 33.5013 73.9004 37.0966V37.0967V37.0968V37.097V37.0971V37.0972V37.0973V37.0974V37.0975V37.0976V37.0978V37.0979V37.098V37.0981V37.0982V37.0983V37.0984V37.0986V37.0987V37.0988V37.0989V37.099V37.0991V37.0992V37.0994V37.0995V37.0996V37.0997V37.0998V37.0999V37.1004ZM94.8656 69.2226H94.8666C98.3562 69.1906 101.843 69.1586 105.322 69.2911C111.414 69.5223 116.727 74.8184 116.881 80.9084C117.062 87.4316 117.062 93.9583 116.881 100.488C116.71 106.706 111.249 112.049 105.021 112.179C98.6005 112.313 92.1771 112.313 85.7503 112.179C79.7126 112.045 74.2519 106.783 73.9601 100.773C73.8093 97.6935 73.835 94.6077 73.8608 91.5176V91.5174V91.5172V91.5169V91.5167V91.5165V91.5162V91.516V91.5158V91.5156V91.5153V91.5151V91.5149V91.5146V91.5144V91.5142V91.514V91.5137V91.5135V91.5133V91.513V91.5128V91.5126V91.5124V91.5121V91.5119V91.5117V91.5114V91.5112V91.511L73.8608 91.5088V91.5086V91.5085V91.5083V91.5081V91.508V91.5078V91.5077V91.5075V91.5073V91.5072V91.507V91.5069V91.5067V91.5065V91.5064V91.5062V91.5061V91.5059V91.5057V91.5056V91.5054V91.5053V91.5051V91.5049V91.5048V91.5046V91.5045V91.5043C73.8723 90.1282 73.8837 88.7512 73.8796 87.3736V85.1593C74.2257 85.5021 74.578 85.822 74.9213 86.1337L74.9214 86.1337C76.5107 87.5769 77.9068 88.8446 77.6062 91.39C77.3736 93.3584 77.4356 95.3715 77.4976 97.3792V97.3793C77.5187 98.0641 77.5398 98.7482 77.5491 99.4297C77.6229 104.699 81.3931 108.514 86.6493 108.558C92.517 108.605 98.3824 108.605 104.246 108.558C109.398 108.508 113.218 104.686 113.269 99.5134C113.322 93.6534 113.322 87.7957 113.269 81.9401C113.218 76.7546 109.458 72.9893 104.273 72.8788C104.013 72.8734 103.754 72.8678 103.495 72.8621H103.494C101.015 72.8083 98.53 72.7543 96.0613 72.9089C94.1527 73.0295 92.7339 72.507 91.5465 71.0397C91.249 70.6763 90.8343 70.408 90.4187 70.1391C90.2252 70.0139 90.0314 69.8886 89.8492 69.7534L90.245 69.2509C91.7756 69.2509 93.3062 69.2368 94.8363 69.2226H94.8373H94.8384H94.8394H94.8404H94.8414H94.8425H94.8435H94.8445H94.8456H94.8466H94.8477H94.8487H94.8498H94.8508H94.8519H94.8529H94.854H94.855H94.8561H94.8571H94.8582H94.8593H94.8603H94.8614H94.8624H94.8635H94.8645H94.8656ZM62.8142 90.3522C62.7788 88.7319 62.7435 87.1117 62.7435 85.495L62.3644 85.1936C62.2189 85.3749 62.0814 85.5664 61.9437 85.758C61.634 86.1893 61.3239 86.6211 60.9221 86.9388C59.4697 88.0711 59.0269 89.4679 59.1343 91.2936C59.2557 93.4033 59.2234 95.5129 59.191 97.6226C59.1823 98.1928 59.1735 98.763 59.1678 99.3332C59.1175 104.68 55.3205 108.525 49.9805 108.565C44.1665 108.608 38.3524 108.608 32.5384 108.565C27.3024 108.512 23.4349 104.703 23.3779 99.4672C23.3197 93.6608 23.3197 87.8544 23.3779 82.048C23.4215 76.7921 27.2386 72.9834 32.478 72.8862C33.1123 72.8747 33.7482 72.8521 34.3841 72.8294H34.3842C36.3374 72.7599 38.2899 72.6905 40.1928 72.9432C43.2143 73.3611 44.7104 71.6272 46.4742 69.583L46.475 69.5821L46.477 69.5798C46.5783 69.4624 46.6805 69.3439 46.7839 69.2248C45.0963 69.2248 43.4466 69.221 41.8207 69.2172H41.8191H41.8176H41.8161H41.8146H41.8132H41.8118H41.8104H41.809H41.8076H41.8063H41.805H41.8037H41.8024H41.8012H41.7999H41.7987H41.7975H41.7963H41.7951H41.7939H41.7928H41.7917H41.7906H41.7895H41.7884H41.7873H41.7863H41.7852C38.6149 69.2098 35.5343 69.2027 32.4377 69.2248C25.4005 69.2885 19.8727 74.6482 19.7385 81.6829C19.6222 87.7126 19.6222 93.7423 19.7385 99.7721C19.876 106.82 25.4106 112.187 32.4545 112.22C38.3222 112.24 44.1888 112.24 50.0543 112.22C56.5213 112.19 62.0692 107.694 62.6462 101.3C62.974 97.6749 62.8941 94.0131 62.8142 90.3522ZM118.467 80.8644L118.467 80.8647L118.467 80.8652L118.467 80.8659C118.519 81.3119 118.574 81.7854 118.625 82.2986C119.799 81.0794 120.977 79.9027 122.139 78.7411C124.74 76.143 127.265 73.6202 129.506 70.8656C132.847 66.762 132.85 60.5949 129.526 56.5349C127.281 53.7892 124.76 51.2695 122.151 48.662L122.15 48.6615L122.149 48.6605L122.149 48.6604L122.149 48.6602L122.149 48.6597L122.148 48.659C120.973 47.485 119.781 46.2933 118.588 45.055C118.557 45.4931 118.541 45.8848 118.527 46.2432C118.498 46.9564 118.475 47.5382 118.343 48.0933C118.024 49.4433 118.444 50.3612 119.45 51.2924C121.048 52.7578 122.567 54.3076 124.086 55.8564L124.086 55.8565L124.087 55.8571L124.087 55.8576L124.088 55.8582L124.088 55.8588L124.089 55.8594L124.089 55.8599L124.09 55.8605L124.091 55.8611L124.091 55.8617C124.484 56.262 124.876 56.6622 125.27 57.0608C129.171 61.0137 129.181 66.3533 125.29 70.3128C124.378 71.2414 123.455 72.159 122.533 73.0764C121.359 74.2439 120.185 75.4112 119.034 76.6005C118.648 76.9991 118.256 77.6054 118.256 78.118C118.249 78.9866 118.35 79.8552 118.467 80.8644ZM17.8767 82.0712C16.7844 80.9385 15.6678 79.826 14.5513 78.7136C12.0061 76.1778 9.4614 73.6425 7.20683 70.8693C3.72175 66.5782 4.1142 60.3441 7.51206 55.9525C7.9278 55.4271 8.3759 54.9281 8.85377 54.4584C11.8726 51.4235 14.8914 48.4019 18.1015 45.1995C18.1488 45.6565 18.2005 46.091 18.2503 46.5097L18.2503 46.5098L18.2503 46.51L18.2504 46.5101C18.3699 47.5151 18.4787 48.4291 18.4906 49.3466C18.4906 49.8021 18.1149 50.3515 17.7627 50.7133C16.6802 51.8219 15.5817 52.9155 14.4832 54.0091C13.4475 55.0401 12.4118 56.0712 11.3896 57.1149C7.56573 61.0074 7.55902 66.3571 11.3661 70.2462L11.6888 70.5752C13.5336 72.4561 15.3823 74.3409 17.2998 76.142C18.2289 77.0163 18.7388 77.8169 18.3732 79.1568C18.2183 79.7271 18.2578 80.3514 18.2973 80.9761C18.3151 81.2579 18.3329 81.5397 18.3329 81.8166L17.8767 82.0712ZM83.2097 117.097L83.2101 117.096C84.2298 115.981 85.2468 114.868 86.2804 113.784C85.5318 113.796 84.7837 113.736 84.0465 113.606C82.5874 113.238 81.6482 113.801 80.6922 114.826C79.1837 116.443 77.5996 117.994 76.0156 119.545L76.0154 119.545L76.0153 119.545C75.6834 119.87 75.3514 120.195 75.0202 120.52C71.0487 124.423 65.7121 124.436 61.7373 120.544C60.7645 119.589 59.8024 118.625 58.8405 117.661C57.7128 116.53 56.5854 115.4 55.4414 114.286C55.0825 113.928 54.5357 113.516 54.0762 113.516C52.9271 113.555 51.7807 113.652 50.6414 113.807C51.6318 114.86 52.613 115.954 53.6037 117.059C55.8912 119.61 58.2293 122.217 60.8484 124.503C65.0983 128.208 71.837 128.131 76.0231 124.426C78.5836 122.157 80.9038 119.619 83.2097 117.097ZM54.2605 41.7923L56.0584 38.4224C56.5335 38.9012 57.0034 39.3757 57.4698 39.8467L57.4746 39.8516L57.4755 39.8525L57.4784 39.8554C58.8036 41.1937 60.1005 42.5034 61.4085 43.8022C65.7388 48.1135 70.9614 48.1202 75.2884 43.819C76.3561 42.7547 77.4137 41.6803 78.5157 40.5609L78.5177 40.5588L78.5179 40.5585L78.5189 40.5575L78.5214 40.555L78.5222 40.5542L78.5246 40.5517L78.5289 40.5473L78.5353 40.5409L78.5358 40.5404L78.5412 40.5348L78.5439 40.5321L78.5452 40.5308C79.2271 39.8381 79.9261 39.128 80.6552 38.3922C80.8149 38.6945 80.9767 38.9787 81.1327 39.253L81.1328 39.2531C81.4748 39.8541 81.7896 40.4073 81.9969 40.9984C82.0708 41.2526 82.0871 41.52 82.0448 41.7813C82.0024 42.0426 81.9024 42.2912 81.752 42.5092C80.1923 44.1841 78.5923 45.8255 76.9018 47.3631C74.5935 49.4811 71.5777 50.6639 68.4431 50.6807C65.3085 50.6974 62.2802 49.5468 59.9494 47.4536C58.5914 46.2346 57.3208 44.9268 56.015 43.5829L56.0149 43.5828L56.0148 43.5827L56.0144 43.5823C55.4401 42.9911 54.8589 42.393 54.2605 41.7923ZM78.982 87.3754C79.5032 87.9189 80.033 88.4715 80.5775 89.0352C80.8941 88.4023 81.2435 87.7862 81.6241 87.1894C82.466 86.0572 82.3251 85.203 81.2249 84.2583C80.359 83.5134 79.5611 82.6924 78.7623 81.8703L78.7623 81.8703L78.7622 81.8702C78.1996 81.2913 77.6366 80.7118 77.0489 80.1581C72.4367 75.8469 65.3425 75.4683 60.5191 79.4881C59.0108 80.7491 57.6927 82.2375 56.3368 83.7688L56.3365 83.769L56.3363 83.7693L56.3361 83.7695L56.3359 83.7697C55.7109 84.4755 55.0778 85.1905 54.4143 85.8964L56.0378 88.9414L61.143 83.8429C65.8356 79.1565 70.8804 79.1666 75.5998 83.8932C76.728 85.0245 77.8339 86.1779 78.982 87.3754ZM90.3588 49.6612L93.713 51.4467C93.2592 51.8871 92.8241 52.3248 92.3967 52.7547L92.3958 52.7556L92.3953 52.7562L92.3952 52.7563L92.3951 52.7563L92.3951 52.7564L92.395 52.7564L92.395 52.7565L92.395 52.7565L92.3949 52.7566L92.3949 52.7566L92.3948 52.7567L92.3948 52.7567L92.3947 52.7568L92.3947 52.7568L92.3946 52.7568L92.3946 52.7569L92.3945 52.7569L92.3945 52.757L92.3944 52.757L92.3944 52.7571L92.3944 52.7571L92.3943 52.7572L92.3943 52.7572C91.48 53.6769 90.6013 54.5609 89.651 55.3593C83.4155 60.6152 83.6335 66.9632 89.6041 71.9745C90.5926 72.8031 91.5241 73.7053 92.5195 74.6693L92.5198 74.6697C92.9328 75.0696 93.3567 75.4802 93.8002 75.9006C93.4342 76.0971 93.1017 76.284 92.7904 76.459L92.7895 76.4595L92.7875 76.4606L92.7865 76.4612C92.0755 76.8609 91.4757 77.1981 90.8418 77.4448C90.6246 77.486 90.4009 77.4773 90.1876 77.4192C89.9743 77.3612 89.777 77.2554 89.6108 77.1099L89.361 76.8709C87.7495 75.329 86.1324 73.7818 84.6398 72.1286C82.5522 69.8297 81.3931 66.8388 81.3869 63.7353C81.3807 60.6319 82.5279 57.6365 84.6062 55.3292C85.8086 53.9826 87.1262 52.7367 88.4949 51.4425C89.1078 50.8629 89.7311 50.2736 90.3588 49.6612ZM43.5951 51.138L43.5947 51.1382L43.5942 51.1385C43.4484 51.2258 43.284 51.3242 43.0875 51.4398L43.7998 52.1481L43.8004 52.1487C45.3382 53.6775 46.8388 55.1694 48.3068 56.679C52.7746 61.1343 52.7746 66.2763 48.2799 70.7483C47.0752 71.9586 45.8285 73.1368 44.5348 74.3594L44.5347 74.3595L44.5339 74.3603L44.5304 74.3636L44.5277 74.3662C43.9975 74.8672 43.4594 75.3758 42.9131 75.897C43.6354 76.2446 44.3385 76.6304 45.0196 77.0527C45.9856 77.7462 46.7001 77.7026 47.542 76.7412C48.3174 75.8567 49.1633 75.0345 50.0091 74.2124C50.6049 73.6333 51.2006 73.0542 51.7717 72.4534C55.9511 68.0517 56.5784 61.3252 52.9658 56.488C51.6686 54.7484 50.117 53.2004 48.5696 51.6566C47.8764 50.9649 47.1839 50.2741 46.5156 49.5673C46.2701 49.6964 46.0387 49.8178 45.8178 49.9338C45.1848 50.2661 44.6384 50.553 44.0938 50.8436C43.9392 50.932 43.7825 51.0258 43.5951 51.138ZM80.1019 26.9671L80.1024 26.9679C80.3949 27.44 80.6646 27.8753 80.903 28.3263L81.6324 29.6967C83.4328 33.0784 85.2331 36.46 86.9943 39.8598C88.1364 42.117 89.971 43.9503 92.2303 45.0923C95.2866 46.6769 98.3297 48.2879 101.372 49.8986L101.378 49.9015C102.083 50.275 102.788 50.6484 103.494 51.0215C103.967 51.2731 104.429 51.5456 104.99 51.8765L104.991 51.8767C105.296 52.057 105.631 52.2545 106.013 52.4754L105.848 52.5189C103.756 53.073 102.029 53.5302 100.27 52.6194C96.9475 50.8998 93.6369 49.1579 90.3385 47.3936C87.8984 46.1051 85.9093 44.1046 84.6363 41.6587C83.0218 38.6037 81.4028 35.5486 79.7793 32.4935C78.7395 30.5372 78.6858 28.7886 79.6821 26.2829C79.8256 26.5211 79.9651 26.7463 80.0998 26.9638L80.0998 26.9638L80.1019 26.9671ZM37.7176 75.3779C35.5575 74.0748 33.4074 74.115 30.6166 74.9056C31.0054 75.1254 31.3438 75.3196 31.6509 75.4959L31.6531 75.4972L31.6548 75.4981C32.2071 75.8152 32.6581 76.0741 33.1189 76.3192C34.06 76.8182 35.0002 77.319 35.9405 77.82L35.9417 77.8206L35.9428 77.8212L35.944 77.8218L35.9452 77.8224L35.9463 77.823L35.9475 77.8237L35.9487 77.8243L35.9498 77.8249L35.951 77.8255L35.9522 77.8261L35.9545 77.8274L35.9569 77.8287L35.9576 77.829C38.7552 79.3193 41.5533 80.8099 44.3758 82.2518C46.7361 83.4406 48.6472 85.361 49.8231 87.7254C51.3723 90.7364 52.9644 93.725 54.5563 96.7134L54.5565 96.7137L54.5567 96.7141L54.5568 96.7144L54.557 96.7147L54.5572 96.7151L54.5574 96.7154L54.5576 96.7158L54.5578 96.7161L54.5579 96.7165L54.5581 96.7168L54.5583 96.7171L54.5585 96.7175L54.5587 96.7178L54.5589 96.7182L54.559 96.7185L54.5592 96.7189L54.5594 96.7192L54.5599 96.7202L54.5605 96.7212C55.011 97.567 55.4615 98.4127 55.9111 99.2589C56.1295 99.6676 56.3762 100.06 56.6232 100.454L56.6234 100.454L56.6237 100.455L56.624 100.455C56.7372 100.635 56.8504 100.816 56.961 100.998C57.6419 98.8067 58.1618 96.8538 56.9107 94.7869C55.3513 92.2098 53.9988 89.5044 52.6502 86.8068L52.5099 86.5262C51.0365 83.4884 48.5859 81.0316 45.5498 79.5485L45.4492 79.4982L45.4491 79.4981C42.836 78.1917 40.2179 76.8828 37.7176 75.3779ZM33.9411 50.5998L33.9414 50.5997C36.2029 49.3419 38.3718 48.1357 40.6417 47.1688C45.9112 44.9277 49.5875 41.3501 51.7812 36.054C52.5668 34.1569 53.5771 32.3515 54.5873 30.5462L54.5873 30.5462C55.022 29.7694 55.4566 28.9927 55.8734 28.2086C56.0865 27.8191 56.3145 27.4391 56.6014 26.961L56.6016 26.9607L56.6017 26.9605C56.7661 26.6864 56.95 26.38 57.1614 26.0212L57.2233 26.3011C57.7263 28.5731 58.1253 30.3754 57.0842 32.2519C55.4071 35.2668 53.8038 38.3285 52.2139 41.3936C50.8629 44.0476 48.7077 46.2081 46.0554 47.5674C43.8895 48.697 41.7339 49.837 39.5776 50.9774L39.5719 50.9804L39.5709 50.9809L39.5699 50.9815L39.5689 50.982L39.5679 50.9825L39.5669 50.983L39.5659 50.9836L39.5648 50.9841C38.72 51.4309 37.8749 51.8778 37.0291 52.3242C35.1575 53.309 33.2824 53.3626 30.7533 52.3443C31.8478 51.764 32.9042 51.1765 33.9411 50.5998ZM79.9369 94.5258C78.6791 96.6496 78.8468 98.7132 79.5713 101.37C79.7736 101.015 79.9549 100.701 80.1205 100.414C80.4711 99.8067 80.7516 99.3207 81.0136 98.827C81.438 98.0301 81.8632 97.2336 82.2883 96.4372C83.8558 93.5009 85.4229 90.565 86.9507 87.6084C88.1128 85.3015 89.9874 83.4294 92.2973 82.2688C95.2819 80.7379 98.24 79.1664 101.197 77.5954L101.198 77.5949L101.204 77.5918C102.036 77.1495 102.869 76.7072 103.702 76.2658C104.187 76.0156 104.652 75.7407 105.216 75.4074C105.482 75.2499 105.77 75.0795 106.093 74.8924C103.444 74.2057 101.371 73.998 99.2407 75.2609C97.2444 76.4378 95.1852 77.4955 93.1271 78.5528L93.1269 78.5529L93.1266 78.5531L93.1263 78.5532L93.126 78.5533L93.1258 78.5535L93.1255 78.5536L93.1252 78.5537L93.1249 78.5539L93.1247 78.554L93.1244 78.5542L93.1241 78.5543L93.1238 78.5544L93.1236 78.5546L93.1233 78.5547L93.123 78.5548L93.1227 78.555C92.2532 79.0017 91.3839 79.4483 90.5196 79.9038C87.9725 81.2203 85.8979 83.2945 84.5826 85.8397C84.1793 86.608 83.7818 87.3799 83.3844 88.1518L83.3843 88.152L83.3841 88.1522L83.384 88.1524L83.3839 88.1526L83.3838 88.1528L83.3837 88.153L83.3836 88.1532L83.3835 88.1534L83.3833 88.1536L83.3832 88.1538L83.3831 88.154L83.383 88.1542L83.3829 88.1544L83.3828 88.1547L83.3827 88.1549L83.3825 88.1551C82.2765 90.3032 81.1702 92.4517 79.9369 94.5258ZM49.1721 90.781C49.3143 91.0476 49.4682 91.3069 49.6204 91.5634C49.9922 92.19 50.3543 92.8002 50.5138 93.4609C50.6345 93.9466 50.1951 94.7405 49.7725 95.166C47.1495 97.8123 46.1935 100.891 47.1796 104.502C47.4615 105.334 47.7977 106.146 48.1859 106.934C48.1384 106.964 48.0972 106.995 48.0602 107.024C47.99 107.077 47.9344 107.119 47.8773 107.122C43.8723 107.279 43.396 106.86 43.1445 102.784C42.8359 97.6884 45.2644 93.9433 49.1721 90.781ZM106.862 38.5166C102.042 38.4262 98.5129 40.8347 95.4572 44.5196C95.952 44.7363 96.4277 44.9941 96.8794 45.29C98.1541 46.3151 99.11 46.1442 100.21 44.888C100.93 44.0274 101.838 43.3423 102.863 42.8848C103.888 42.4274 105.005 42.2097 106.127 42.2484C107.456 42.2931 108.774 42.594 110.084 42.8934L110.084 42.8935L110.084 42.8935L110.085 42.8935L110.085 42.8936L110.085 42.8936L110.085 42.8936L110.085 42.8937L110.085 42.8937L110.086 42.8937L110.086 42.8938L110.086 42.8938L110.086 42.8938L110.086 42.8939L110.086 42.8939C110.641 43.0205 111.193 43.1468 111.746 43.2533C112.057 39.1866 111.648 38.7478 107.361 38.5166H106.862ZM88.5545 20.4336C88.558 20.4308 88.5615 20.4278 88.5652 20.4244C88.5711 20.4191 88.5772 20.4131 88.5835 20.407C88.6072 20.3838 88.6337 20.3578 88.6618 20.3532C92.5628 19.9244 93.1297 20.3699 93.502 24.2892C93.9984 29.515 91.5397 33.3338 87.5448 36.6033C87.397 36.3296 87.2399 36.0655 87.0851 35.8054C86.7133 35.1804 86.3553 34.5786 86.1729 33.9234C86.0455 33.4779 86.4379 32.704 86.8438 32.3222C89.3461 29.8701 90.4261 26.9624 89.6882 23.5288C89.5285 22.8379 89.2516 22.1661 88.9718 21.4871L88.9718 21.487L88.9717 21.4869L88.9717 21.4868L88.9716 21.4867L88.9716 21.4866L88.9715 21.4864L88.9715 21.4863L88.9714 21.4862L88.9714 21.4861L88.9713 21.486L88.9713 21.4859L88.9713 21.4858L88.9712 21.4857C88.8279 21.138 88.6839 20.7885 88.5545 20.4336ZM85.7834 94.0802C89.9796 97.7315 91.1402 101.912 88.3696 107.111C89.0499 107.065 89.7328 107.071 90.4123 107.128C92.1565 107.419 92.8307 106.609 93.2198 104.977C94.471 99.7046 92.2505 94.04 87.4908 90.8509L85.7834 94.0802ZM24.8973 83.7228C29.6805 86.1783 33.719 85.5418 37.2745 81.8235C37.563 81.5253 38.3445 81.4617 38.7906 81.6091C39.3875 81.8053 39.944 82.1278 40.4995 82.4497C40.712 82.5728 40.9243 82.6958 41.1386 82.8117C37.6368 87.6656 32.3169 89.7525 27.0507 88.5332C25.4575 88.1647 24.5351 87.5618 24.8537 85.7696C24.9216 85.0895 24.9362 84.4052 24.8973 83.7228ZM43.2617 27.1669C43.7112 31.1331 46.029 33.9906 49.0478 36.5465C50.9621 33.7862 50.9537 33.7759 49.0387 31.4249L48.9539 31.3207C46.6059 28.4231 46.1665 25.214 47.6122 21.7636C47.7314 21.4815 47.8564 21.2037 47.9872 20.913L47.9874 20.9126L47.9878 20.9116L47.9879 20.9114L47.9881 20.911L47.9886 20.91L47.9889 20.9093L47.989 20.9091C48.0564 20.7593 48.1254 20.6061 48.1959 20.4471C43.9728 20.0518 43.5804 20.3466 43.1879 24.3363C43.1136 25.2798 43.1384 26.2285 43.2617 27.1669ZM41.2357 44.5528L37.9284 46.2981C34.3092 42.0773 30.056 40.9383 25.0816 43.5646C25.051 43.5101 25.0251 43.4698 25.0046 43.4379C24.9735 43.3895 24.9548 43.3604 24.9508 43.3301C24.5382 39.5415 25.0984 38.8447 28.9759 38.5465C34.1448 38.1479 37.9787 40.533 41.2357 44.5528ZM111.856 85.052V83.7456C107.325 85.7924 103.702 85.8225 101.042 83.1594C99.1137 81.2332 97.6579 81.2466 95.7594 82.7172C95.6811 82.7915 95.6103 82.8735 95.5481 82.9617C98.9124 87.129 103.052 89.514 108.606 88.7369C111.776 88.298 111.89 88.1741 111.856 85.052ZM74.7653 76.0411L80.7258 70.1186L82.8323 73.2038L77.8646 78.0812L74.7653 76.0411ZM53.8916 54.1901L55.7164 56.9136C58.2583 55.6677 60.3103 53.609 61.5461 51.0647L58.8291 49.3094L53.8916 54.1901ZM61.5761 76.3125L58.8391 78.1281L53.9351 73.1938C54.2711 72.6976 54.6888 72.0764 55.1471 71.3949L55.1488 71.3924L55.7397 70.5139C58.3292 71.7768 60.1774 73.6963 61.5761 76.3125ZM74.7917 51.3528L80.7187 57.282L82.7715 54.1834L77.8642 49.2457L74.7917 51.3528ZM63.3643 105.999C63.5865 105.314 63.7674 104.719 63.9121 104.244L63.9121 104.244C63.9858 104.002 64.0501 103.791 64.1056 103.614H72.5818C72.7007 103.973 72.8835 104.532 73.1034 105.205L73.1069 105.216L73.3499 105.959C70.0225 107.195 66.8057 107.148 63.3643 105.999ZM108.341 67.9684L110.689 68.6718C111.905 65.4693 111.913 61.9344 110.712 58.7261L108.341 59.4564V67.9684ZM72.6247 23.7533H64.1049C64.0352 23.5289 63.9486 23.2539 63.8492 22.9382L63.8483 22.9354L63.848 22.9342C63.7133 22.5063 63.5551 22.004 63.3837 21.452C66.6709 20.169 69.8876 20.246 73.2989 21.3783L72.6247 23.7533ZM26.0379 68.6719L28.349 67.9584V59.4364L25.9809 58.7463C24.8438 62.133 24.7465 65.3757 26.0379 68.6719Z" fill="url(#paint0_linear_467_5023)"/>
<path d="M10.8628 176.969L13.6553 169.106H24.8796L27.6721 176.969H31.1966L21.0026 149.206H17.5323L7.33832 176.969H10.8628ZM14.7127 166.124L19.159 153.598H19.3759L23.8222 166.124H14.7127ZM50.7034 156.147H53.9568C53.8077 151.958 49.9443 148.827 44.5762 148.827C39.2623 148.827 35.0871 151.918 35.0871 156.581C35.0871 160.322 37.7983 162.545 42.1361 163.792L45.5522 164.769C48.4803 165.582 51.083 166.612 51.083 169.377C51.083 172.414 48.1549 174.42 44.3051 174.42C40.9975 174.42 38.0694 172.956 37.7983 169.811H34.328C34.6533 174.366 38.3405 177.457 44.3051 177.457C50.7034 177.457 54.3364 173.932 54.3364 169.432C54.3364 164.226 49.4021 162.545 46.5282 161.786L43.7086 161.027C41.6481 160.485 38.3405 159.4 38.3405 156.418C38.3405 153.761 40.7806 151.809 44.4678 151.809C47.8296 151.809 50.3781 153.409 50.7034 156.147ZM58.3455 152.189H67.0755V176.969H70.4373V152.189H79.1673V149.206H58.3455V152.189ZM84.3558 176.969H87.7176V166.124H93.7906C94.0347 166.124 94.2651 166.124 94.4956 166.111L100.352 176.969H104.256L97.9794 165.501C101.517 164.294 103.171 161.407 103.171 157.719C103.171 152.812 100.243 149.206 93.7364 149.206H84.3558V176.969ZM87.7176 163.088V152.189H93.628C98.1285 152.189 99.8637 154.385 99.8637 157.719C99.8637 161.054 98.1285 163.088 93.6822 163.088H87.7176ZM109.912 176.969L112.704 169.106H123.929L126.721 176.969H130.246L120.052 149.206H116.581L106.387 176.969H109.912ZM113.762 166.124L118.208 153.598H118.425L122.871 166.124H113.762Z" fill="url(#paint1_linear_467_5023)"/>
<path d="M6.56102 198.095H7.89853L4.0306 192.907L7.77201 188.841H6.4345L2.72924 192.853H2.24123V188.841H1.12062V198.095H2.24123V193.847H3.37992L6.56102 198.095ZM8.58762 198.095H8.94911C10.4854 198.095 10.9283 196.902 11.0277 194.624L11.1361 192.148H13.6846V198.095H14.751V191.154H10.1239L9.99743 194.227C9.90705 196.558 9.67209 197.101 8.84066 197.101H8.58762V198.095ZM17.1459 200.697C18.1083 200.697 18.7861 200.187 19.1883 199.107L22.1435 191.172L20.9777 191.154L19.0618 196.685H18.9895L17.0736 191.154H15.9168L18.4834 198.131L18.2846 198.673C17.896 199.73 17.417 199.83 16.6398 199.631L16.3687 200.571C16.4771 200.625 16.7844 200.697 17.1459 200.697ZM28.7056 188.551C28.3667 188.836 27.8606 188.836 27.1512 188.832C26.9208 188.832 26.6677 188.832 26.3921 188.841C24.2774 188.895 23.229 190.503 23.229 193.594V194.335C23.229 196.902 24.4762 198.239 26.3379 198.239C28.195 198.239 29.4286 196.893 29.4286 194.715C29.4286 192.528 28.1769 191.371 26.5547 191.371C25.6013 191.371 24.7112 191.769 24.2412 192.636H24.1508C24.2954 190.847 24.9642 189.889 26.4102 189.835C27.6934 189.78 28.6152 189.817 29.2478 189.202L28.7056 188.551ZM26.3379 197.281C25.0726 197.281 24.2954 196.269 24.2954 194.715C24.318 193.197 25.0817 192.329 26.3198 192.329C27.5895 192.329 28.3622 193.197 28.3622 194.715C28.3622 196.278 27.594 197.281 26.3379 197.281ZM34.6385 200.697H35.7049V197.028H35.7953C36.0303 197.408 36.4821 198.239 37.8196 198.239C39.5548 198.239 40.7658 196.848 40.7658 194.643C40.7658 192.455 39.5548 191.064 37.8016 191.064C36.446 191.064 36.0303 191.895 35.7953 192.257H35.6688V191.154H34.6385V200.697ZM35.6869 194.624C35.6869 193.07 36.3737 192.022 37.675 192.022C39.0306 192.022 39.6994 193.16 39.6994 194.624C39.6994 196.107 39.0126 197.281 37.675 197.281C36.3918 197.281 35.6869 196.197 35.6869 194.624ZM45.3025 198.239C46.7123 198.239 47.7425 197.534 48.0679 196.486L47.0376 196.197C46.7665 196.92 46.1384 197.281 45.3025 197.281C44.0508 197.281 43.1878 196.473 43.138 194.986H48.1763V194.534C48.1763 191.949 46.64 191.064 45.194 191.064C43.3143 191.064 42.0671 192.546 42.0671 194.679C42.0671 196.811 43.2962 198.239 45.3025 198.239ZM43.138 194.064C43.2103 192.984 43.974 192.022 45.194 192.022C46.3508 192.022 47.0918 192.889 47.0918 194.064H43.138ZM51.8409 198.257C53.0519 198.257 53.6845 197.607 53.9014 197.155H53.9556V198.095H55.022V193.522C55.022 191.317 53.3411 191.064 52.4554 191.064C51.4071 191.064 50.2142 191.425 49.672 192.69L50.6841 193.052C50.9191 192.546 51.4749 192.004 52.4916 192.004C53.4721 192.004 53.9556 192.523 53.9556 193.413V193.45C53.9556 193.965 53.4314 193.92 52.1662 194.082C50.8784 194.249 49.4731 194.534 49.4731 196.125C49.4731 197.48 50.5215 198.257 51.8409 198.257ZM52.0036 197.299C51.1541 197.299 50.5395 196.92 50.5395 196.179C50.5395 195.365 51.2806 195.112 52.112 195.004C52.5639 194.95 53.7749 194.823 53.9556 194.606V195.582C53.9556 196.45 53.2688 197.299 52.0036 197.299ZM56.3539 198.095H56.7153C58.2517 198.095 58.6945 196.902 58.7939 194.624L58.9024 192.148H61.4509V198.095H62.5172V191.154H57.8902L57.7637 194.227C57.6733 196.558 57.4383 197.101 56.6069 197.101H56.3539V198.095ZM65.5402 193.666V191.154H64.4738V198.095H67.3838C69.0105 198.095 69.8961 197.101 69.8961 195.853C69.8961 194.588 69.0105 193.666 67.3838 193.666H65.5402ZM65.5402 194.661H67.3838C68.2288 194.661 68.8297 195.176 68.8297 195.908C68.8297 196.608 68.2288 197.101 67.3838 197.101H65.5402V194.661ZM72.5858 191.154H71.5194V198.095H72.5858V195.131H75.9115V198.095H76.9779V191.154H75.9115V194.136H72.5858V191.154ZM79.9918 193.666V191.154H78.9255V198.095H81.8354C83.4621 198.095 84.3478 197.101 84.3478 195.853C84.3478 194.588 83.4621 193.666 81.8354 193.666H79.9918ZM85.4503 198.095H86.5167V191.154H85.4503V198.095ZM79.9918 194.661H81.8354C82.6804 194.661 83.2814 195.176 83.2814 195.908C83.2814 196.608 82.6804 197.101 81.8354 197.101H79.9918V194.661ZM89.264 191.154H88.035L90.2401 194.624L88.035 198.095H89.264L90.9269 195.402L92.5897 198.095H93.8188L91.5776 194.624L93.8188 191.154H92.5897L90.9269 193.992L89.264 191.154ZM98.3046 198.095H98.6661C100.202 198.095 100.645 196.902 100.745 194.624L100.853 192.148H103.402V198.095H104.468V191.154H99.841L99.7144 194.227C99.6241 196.558 99.3891 197.101 98.5577 197.101H98.3046V198.095ZM106.985 191.154H105.919V198.095H106.985V195.185H108.765C108.955 197.042 110.161 198.239 111.883 198.239C113.763 198.239 115.028 196.811 115.028 194.661C115.028 192.492 113.763 191.064 111.883 191.064C110.143 191.064 108.928 192.288 108.761 194.191H106.985V191.154ZM111.883 197.281C110.455 197.281 109.805 196.052 109.805 194.661C109.805 193.269 110.455 192.022 111.883 192.022C113.311 192.022 113.962 193.269 113.962 194.661C113.962 196.052 113.311 197.281 111.883 197.281ZM116.022 200.083H117.089V198.095H122.222V200.083H123.288V197.101H122.222V191.154H117.811L117.577 193.901C117.409 195.844 117.161 196.513 116.6 197.101H116.022V200.083ZM117.811 197.101C118.299 196.459 118.476 195.352 118.625 193.901L118.806 192.148H121.155V197.101H117.811ZM127.613 198.239C129.023 198.239 130.054 197.534 130.379 196.486L129.349 196.197C129.078 196.92 128.449 197.281 127.613 197.281C126.362 197.281 125.499 196.473 125.449 194.986H130.487V194.534C130.487 191.949 128.951 191.064 127.505 191.064C125.625 191.064 124.378 192.546 124.378 194.679C124.378 196.811 125.607 198.239 127.613 198.239ZM125.449 194.064C125.521 192.984 126.285 192.022 127.505 192.022C128.662 192.022 129.403 192.889 129.403 194.064H125.449ZM133.176 196.522V191.154H132.11V198.095H133.357L136.682 192.727V198.095H137.749V191.154H136.52L133.176 196.522ZM135.815 188.841C135.815 189.311 135.562 189.726 134.929 189.726C134.297 189.726 134.062 189.311 134.062 188.841H133.067C133.067 189.817 133.79 190.503 134.929 190.503C136.086 190.503 136.809 189.817 136.809 188.841H135.815Z" fill="url(#paint2_linear_467_5023)"/>

<linearGradient id="paint0_linear_467_5023" x1="4.77173" y1="0" x2="132.015" y2="127.244" gradientUnits="userSpaceOnUse">
<stop stop-color="#D9BF83"/>
<stop offset="1" stop-color="#644821"/>
</linearGradient>
<linearGradient id="paint1_linear_467_5023" x1="6.36231" y1="147.922" x2="170.189" y2="186.095" gradientUnits="userSpaceOnUse">
<stop stop-color="#D9BF83"/>
<stop offset="1" stop-color="#634720"/>
</linearGradient>
<linearGradient id="paint2_linear_467_5023" x1="2.28543e-06" y1="188.837" x2="122.815" y2="281.281" gradientUnits="userSpaceOnUse">
<stop stop-color="#D9BF83"/>
<stop offset="1" stop-color="#634720"/>
</linearGradient>
</defs>
</svg>
