<svg width="140" height="202" viewBox="0 0 140 202" fill="none" xmlns="http://www.w3.org/2000/svg">
<path fill-rule="evenodd" clip-rule="evenodd" d="M49.8161 13.7343C50.9365 12.5975 52.0068 11.4699 53.0563 10.3643C55.3436 7.95454 57.5323 5.64879 59.9258 3.57757C64.9002 -0.720279 70.2804 -1.2998 75.5131 2.67981C78.3405 4.82601 80.8557 7.37398 83.4511 10.0031C84.6029 11.1699 85.7704 12.3526 86.988 13.5233C86.4707 13.5739 85.9952 13.629 85.5482 13.6808C84.5461 13.7969 83.6872 13.8964 82.822 13.8917C82.2439 13.8207 81.7082 13.552 81.3059 13.1313C80.1709 12.0347 79.0552 10.9168 77.9395 9.79907L77.9394 9.79892L77.9393 9.79886L77.9393 9.79881L77.9392 9.79875L77.9392 9.7987L77.9391 9.79865L77.9391 9.79859L77.939 9.79854L77.939 9.79848L77.9389 9.79843L77.9389 9.79837L77.9389 9.79832L77.9388 9.79827L77.9388 9.79821L77.9387 9.79816L77.9387 9.7981L77.9386 9.79805L77.9386 9.79799L77.9385 9.79794L77.9385 9.79788L77.9384 9.79783L77.9384 9.79778L77.9384 9.79772L77.9383 9.79767L77.9383 9.79761L77.9382 9.79756L77.9382 9.7975C76.9244 8.78187 75.9107 7.76627 74.8825 6.76663C71.0855 3.0483 65.8193 2.98465 61.9619 6.62928C59.8934 8.58559 57.8809 10.5955 55.9242 12.659C55.0588 13.5702 54.2739 14.1497 52.9054 13.7745C52.3183 13.6262 51.689 13.6587 50.9629 13.6962C50.6062 13.7147 50.2261 13.7343 49.8161 13.7343ZM41.9319 58.2215C43.4532 58.209 44.9746 58.1965 46.4957 58.1965L46.9318 57.6773C46.7516 57.5473 46.5608 57.4264 46.37 57.3055L46.3699 57.3055L46.3699 57.3055L46.3698 57.3054L46.3698 57.3054L46.3697 57.3054L46.3697 57.3053L46.3696 57.3053L46.3696 57.3053L46.3695 57.3052L46.3695 57.3052L46.3694 57.3051L46.3694 57.3051L46.3694 57.3051L46.3693 57.305L46.3693 57.305L46.3692 57.305L46.3692 57.3049L46.3691 57.3049L46.3691 57.3049L46.369 57.3048L46.369 57.3048L46.3689 57.3048L46.3689 57.3047L46.3689 57.3047L46.3688 57.3047L46.3688 57.3046L46.3687 57.3046L46.3687 57.3046L46.3686 57.3045L46.3686 57.3045C45.9451 57.0362 45.5217 56.7678 45.2144 56.401C44.6937 55.7223 44.0053 55.1904 43.2168 54.8575C42.4282 54.5245 41.5666 54.4019 40.7163 54.5016C38.7038 54.6423 36.6912 54.6077 34.6786 54.5732C34.0078 54.5617 33.337 54.5502 32.6661 54.5452C27.4335 54.4983 23.4822 50.723 23.4084 45.524C23.3212 39.6015 23.3111 33.6823 23.4084 27.7698C23.407 26.5924 23.6383 25.4263 24.089 24.3383C24.5396 23.2503 25.2008 22.2618 26.0346 21.4294C26.8684 20.597 27.8585 19.9371 28.9481 19.4875C30.0377 19.0378 31.2054 18.8072 32.3844 18.809C38.3169 18.7219 44.2428 18.7219 50.1619 18.809C55.3006 18.8861 59.1111 22.7786 59.1681 27.8804C59.1779 28.5644 59.2037 29.2504 59.2294 29.9359V29.9359C59.3009 31.8386 59.3723 33.7381 59.101 35.585C58.6659 38.5256 60.33 39.9932 62.2779 41.7112L62.2787 41.7119L62.279 41.7121C62.4632 41.8746 62.6499 42.0393 62.8377 42.2077C62.8377 40.5295 62.8407 38.8865 62.8437 37.2668L62.8438 37.2632V37.2621C62.8497 34.0887 62.8554 31.0046 62.8377 27.9206C62.7974 20.8156 57.3937 15.2649 50.2558 15.1409C44.2741 15.0337 38.2946 15.0337 32.3173 15.1409C25.3236 15.2649 19.883 20.638 19.7455 27.5956C19.6281 33.6254 19.6415 39.6551 19.7455 45.6848C19.8663 52.4415 25.1291 57.9519 31.7571 58.1663C35.1454 58.2774 38.5385 58.2494 41.9319 58.2215ZM73.9006 37.1004C73.9237 38.6918 73.9467 40.2833 73.9467 41.8729L74.3593 42.1275C74.5159 41.9405 74.6645 41.7437 74.8131 41.547L74.8132 41.5469C75.1356 41.1201 75.4579 40.6934 75.862 40.3655C77.1836 39.2936 77.6733 38.034 77.5794 36.3021C77.435 33.5852 77.4901 30.8591 77.545 28.1384L77.5525 27.7667C77.6464 22.8023 81.363 18.9198 86.3474 18.8193C92.3851 18.7032 98.4227 18.7032 104.46 18.8193C109.445 18.9198 113.208 22.7788 113.272 27.7533C113.346 33.7228 113.356 39.6989 113.272 45.6683C113.198 50.7031 109.294 54.4684 104.232 54.532C103.543 54.5407 102.856 54.5564 102.17 54.572C99.956 54.6224 97.7522 54.6726 95.5112 54.4885C93.3903 54.3142 92.3536 55.4606 91.1949 56.7421L91.1948 56.7421C90.7501 57.2339 90.2874 57.7456 89.7385 58.2101C91.4941 58.2101 93.1896 58.2132 94.8456 58.2163L94.8511 58.2163H94.8513H94.8516H94.8518H94.852H94.8522H94.8525H94.8527H94.853H94.8532H94.8534H94.8536H94.8539H94.8541H94.8544H94.8546H94.8548H94.855H94.8553H94.8555H94.8558H94.856H94.8562H94.8564H94.8567H94.8569H94.8571H94.8574H94.8576H94.8578H94.858C98.0577 58.2222 101.11 58.2278 104.162 58.2101C111.363 58.1733 116.905 52.6628 116.948 45.4807C116.977 39.623 116.977 33.763 116.948 27.9007C116.921 20.8661 111.581 15.3254 104.511 15.1713C98.473 15.0407 92.4354 15.0608 86.3977 15.1713C79.924 15.2819 74.3794 20.1525 74.0104 26.3364C73.7965 29.9068 73.8486 33.5013 73.9006 37.0966V37.0967V37.0968V37.097V37.0971V37.0972V37.0973V37.0974V37.0975V37.0976V37.0978V37.0979V37.098V37.0981V37.0982V37.0983V37.0984V37.0986V37.0987V37.0988V37.0989V37.099V37.0991V37.0992V37.0994V37.0995V37.0996V37.0997V37.0998V37.0999V37.1004ZM94.8658 69.2226H94.8669C98.3565 69.1906 101.844 69.1586 105.323 69.2911C111.414 69.5223 116.727 74.8184 116.881 80.9084C117.063 87.4316 117.063 93.9583 116.881 100.488C116.71 106.706 111.25 112.049 105.021 112.179C98.6007 112.313 92.1773 112.313 85.7506 112.179C79.7129 112.045 74.2522 106.783 73.9603 100.773C73.8095 97.6935 73.8353 94.6077 73.861 91.5176V91.5174V91.5172V91.5169V91.5167V91.5165V91.5162V91.516V91.5158V91.5156V91.5153V91.5151V91.5149V91.5146V91.5144V91.5142V91.514V91.5137V91.5135V91.5133V91.513V91.5128V91.5126V91.5124V91.5121V91.5119V91.5117V91.5114V91.5112V91.511L73.861 91.5088V91.5086V91.5085V91.5083V91.5081V91.508V91.5078V91.5077V91.5075V91.5073V91.5072V91.507V91.5069V91.5067V91.5065V91.5064V91.5062V91.5061V91.5059V91.5057V91.5056V91.5054V91.5053V91.5051V91.5049V91.5048V91.5046V91.5045V91.5043C73.8725 90.1282 73.884 88.7512 73.8798 87.3736V85.1593C74.226 85.5021 74.5783 85.822 74.9216 86.1337L74.9217 86.1337C76.511 87.5769 77.9071 88.8446 77.6064 91.39C77.3738 93.3584 77.4359 95.3715 77.4978 97.3792V97.3793C77.5189 98.0641 77.54 98.7482 77.5494 99.4297C77.6232 104.699 81.3934 108.514 86.6495 108.558C92.5172 108.605 98.3827 108.605 104.246 108.558C109.398 108.508 113.219 104.686 113.269 99.5134C113.323 93.6534 113.323 87.7957 113.269 81.9401C113.219 76.7546 109.458 72.9893 104.273 72.8788C104.014 72.8734 103.754 72.8678 103.495 72.8621H103.495C101.015 72.8083 98.5302 72.7543 96.0615 72.9089C94.153 73.0295 92.7341 72.507 91.5467 71.0397C91.2492 70.6763 90.8346 70.408 90.4189 70.1391C90.2254 70.0139 90.0317 69.8886 89.8495 69.7534L90.2453 69.2509C91.7758 69.2509 93.3064 69.2368 94.8365 69.2226H94.8376H94.8386H94.8396H94.8407H94.8417H94.8427H94.8438H94.8448H94.8458H94.8469H94.8479H94.849H94.85H94.8511H94.8521H94.8532H94.8542H94.8553H94.8563H94.8574H94.8584H94.8595H94.8605H94.8616H94.8627H94.8637H94.8648H94.8658ZM62.8144 90.3522C62.7791 88.7319 62.7437 87.1117 62.7437 85.495L62.3647 85.1936C62.2192 85.3749 62.0816 85.5664 61.944 85.758C61.6342 86.1893 61.3241 86.6211 60.9223 86.9388C59.4699 88.0711 59.0272 89.4679 59.1345 91.2936C59.256 93.4033 59.2236 95.5129 59.1913 97.6226C59.1825 98.1928 59.1738 98.763 59.1681 99.3332C59.1177 104.68 55.3207 108.525 49.9807 108.565C44.1667 108.608 38.3527 108.608 32.5386 108.565C27.3026 108.512 23.4352 104.703 23.3781 99.4672C23.32 93.6608 23.32 87.8544 23.3781 82.048C23.4217 76.7921 27.2389 72.9834 32.4782 72.8862C33.1125 72.8747 33.7485 72.8521 34.3843 72.8294H34.3845C36.3376 72.7599 38.2901 72.6905 40.193 72.9432C43.2145 73.3611 44.7106 71.6272 46.4744 69.583L46.4752 69.5821L46.4772 69.5798C46.5785 69.4624 46.6807 69.3439 46.7841 69.2248C45.0965 69.2248 43.4469 69.221 41.8209 69.2172H41.8194H41.8179H41.8164H41.8149H41.8134H41.812H41.8106H41.8092H41.8079H41.8065H41.8052H41.8039H41.8027H41.8014H41.8002H41.7989H41.7977H41.7965H41.7954H41.7942H41.793H41.7919H41.7908H41.7897H41.7886H41.7876H41.7865H41.7855C38.6151 69.2098 35.5346 69.2027 32.438 69.2248C25.4007 69.2885 19.8729 74.6482 19.7388 81.6829C19.6225 87.7126 19.6225 93.7423 19.7388 99.7721C19.8763 106.82 25.4108 112.187 32.4548 112.22C38.3225 112.24 44.1891 112.24 50.0545 112.22C56.5215 112.19 62.0695 107.694 62.6464 101.3C62.9743 97.6749 62.8943 94.0131 62.8144 90.3522ZM118.468 80.8644L118.468 80.8647L118.468 80.8652L118.468 80.8659C118.52 81.3119 118.575 81.7854 118.625 82.2986C119.799 81.0794 120.977 79.9027 122.14 78.7411C124.74 76.143 127.265 73.6202 129.506 70.8656C132.847 66.762 132.85 60.5949 129.526 56.5349C127.281 53.7892 124.76 51.2695 122.151 48.662L122.151 48.6615L122.15 48.6605L122.15 48.6604L122.149 48.6602L122.149 48.6597L122.148 48.659C120.974 47.485 119.781 46.2933 118.588 45.055C118.557 45.4931 118.541 45.8848 118.527 46.2432C118.498 46.9564 118.475 47.5382 118.343 48.0933C118.025 49.4433 118.444 50.3612 119.45 51.2924C121.048 52.7578 122.568 54.3076 124.086 55.8564L124.086 55.8565L124.087 55.8571L124.087 55.8576L124.088 55.8582L124.089 55.8588L124.089 55.8594L124.09 55.8599L124.09 55.8605L124.091 55.8611L124.091 55.8617C124.484 56.262 124.876 56.6622 125.27 57.0608C129.171 61.0137 129.181 66.3533 125.29 70.3128C124.378 71.2414 123.455 72.159 122.533 73.0764C121.359 74.2439 120.186 75.4112 119.034 76.6005C118.649 76.9991 118.256 77.6054 118.256 78.118C118.249 78.9866 118.35 79.8552 118.468 80.8644ZM17.877 82.0712C16.7847 80.9385 15.6681 79.826 14.5516 78.7136C12.0063 76.1778 9.46165 73.6425 7.20707 70.8693C3.722 66.5782 4.11445 60.3441 7.51231 55.9525C7.92804 55.4271 8.37615 54.9281 8.85401 54.4584C11.8728 51.4235 14.8917 48.4019 18.1017 45.1995C18.149 45.6565 18.2007 46.091 18.2506 46.5097L18.2506 46.5098L18.2506 46.51L18.2506 46.5101C18.3702 47.5151 18.479 48.4291 18.4908 49.3466C18.4908 49.8021 18.1151 50.3515 17.7629 50.7133C16.6804 51.8219 15.582 52.9155 14.4835 54.0091C13.4478 55.0401 12.4121 56.0712 11.3898 57.1149C7.56598 61.0074 7.55927 66.3571 11.3664 70.2462L11.689 70.5752C13.5339 72.4561 15.3825 74.3409 17.3 76.142C18.2292 77.0163 18.739 77.8169 18.3734 79.1568C18.2185 79.7271 18.258 80.3514 18.2975 80.9761C18.3153 81.2579 18.3331 81.5397 18.3331 81.8166L17.877 82.0712ZM83.2099 117.097L83.2103 117.096C84.2301 115.981 85.247 114.868 86.2807 113.784C85.532 113.796 84.784 113.736 84.0467 113.606C82.5876 113.238 81.6484 113.801 80.6925 114.826C79.184 116.443 77.5998 117.994 76.0158 119.545L76.0157 119.545L76.0156 119.545C75.6836 119.87 75.3517 120.195 75.0204 120.52C71.049 124.423 65.7123 124.436 61.7376 120.544C60.7648 119.589 59.8027 118.625 58.8408 117.661C57.7131 116.53 56.5857 115.4 55.4416 114.286C55.0827 113.928 54.536 113.516 54.0764 113.516C52.9273 113.555 51.7809 113.652 50.6417 113.807C51.632 114.86 52.6132 115.954 53.6039 117.059C55.8914 119.61 58.2296 122.217 60.8487 124.503C65.0985 128.208 71.8372 128.131 76.0233 124.426C78.5838 122.157 80.9041 119.619 83.2099 117.097ZM54.2608 41.7923L56.0587 38.4224C56.5338 38.9012 57.0037 39.3757 57.47 39.8467L57.4749 39.8516L57.4757 39.8525L57.4786 39.8554C58.8038 41.1937 60.1008 42.5034 61.4087 43.8022C65.7391 48.1135 70.9616 48.1202 75.2886 43.819C76.3564 42.7547 77.4139 41.6803 78.5159 40.5609L78.5179 40.5588L78.5182 40.5585L78.5192 40.5575L78.5217 40.555L78.5225 40.5542L78.5249 40.5517L78.5292 40.5473L78.5356 40.5409L78.536 40.5404L78.5415 40.5348L78.5442 40.5321L78.5454 40.5308C79.2273 39.8381 79.9264 39.128 80.6554 38.3922C80.8152 38.6945 80.9769 38.9787 81.133 39.253L81.133 39.2531C81.475 39.8541 81.7899 40.4073 81.9971 40.9984C82.071 41.2526 82.0874 41.52 82.045 41.7813C82.0027 42.0426 81.9027 42.2912 81.7523 42.5092C80.1926 44.1841 78.5926 45.8255 76.902 47.3631C74.5937 49.4811 71.5779 50.6639 68.4433 50.6807C65.3087 50.6974 62.2804 49.5468 59.9496 47.4536C58.5916 46.2346 57.321 44.9268 56.0153 43.5829L56.0152 43.5828L56.0151 43.5827L56.0147 43.5823C55.4403 42.9911 54.8592 42.393 54.2608 41.7923ZM78.9823 87.3754C79.5034 87.9189 80.0332 88.4715 80.5778 89.0352C80.8944 88.4023 81.2437 87.7862 81.6243 87.1894C82.4662 86.0572 82.3253 85.203 81.2251 84.2583C80.3592 83.5134 79.5614 82.6924 78.7626 81.8703L78.7625 81.8703L78.7625 81.8702C78.1999 81.2913 77.6368 80.7118 77.0491 80.1581C72.437 75.8469 65.3427 75.4683 60.5193 79.4881C59.0111 80.7491 57.693 82.2375 56.337 83.7688L56.3368 83.769L56.3365 83.7693L56.3364 83.7695L56.3362 83.7697C55.7111 84.4755 55.078 85.1905 54.4146 85.8964L56.038 88.9414L61.1432 83.8429C65.8358 79.1565 70.8806 79.1666 75.6001 83.8932C76.7282 85.0245 77.8341 86.1779 78.9823 87.3754ZM90.359 49.6612L93.7133 51.4467C93.2595 51.8871 92.8243 52.3248 92.397 52.7547L92.3961 52.7556L92.3955 52.7562L92.3954 52.7563L92.3954 52.7563L92.3953 52.7564L92.3953 52.7564L92.3952 52.7565L92.3952 52.7565L92.3951 52.7566L92.3951 52.7566L92.3951 52.7567L92.395 52.7567L92.395 52.7568L92.3949 52.7568L92.3949 52.7568L92.3948 52.7569L92.3948 52.7569L92.3947 52.757L92.3947 52.757L92.3946 52.7571L92.3946 52.7571L92.3946 52.7572L92.3945 52.7572C91.4803 53.6769 90.6016 54.5609 89.6513 55.3593C83.4157 60.6152 83.6337 66.9632 89.6043 71.9745C90.5928 72.8031 91.5244 73.7053 92.5197 74.6693L92.5201 74.6697C92.933 75.0696 93.3569 75.4802 93.8005 75.9006C93.4345 76.0971 93.1019 76.284 92.7907 76.459L92.7897 76.4595L92.7877 76.4606L92.7868 76.4612C92.0758 76.8609 91.4759 77.1981 90.842 77.4448C90.6248 77.486 90.4011 77.4773 90.1878 77.4192C89.9745 77.3612 89.7773 77.2554 89.611 77.1099L89.3613 76.8709C87.7497 75.329 86.1327 73.7818 84.64 72.1286C82.5525 69.8297 81.3934 66.8388 81.3872 63.7353C81.381 60.6319 82.5281 57.6365 84.6065 55.3292C85.8088 53.9826 87.1264 52.7367 88.4951 51.4425C89.1081 50.8629 89.7313 50.2736 90.359 49.6612ZM43.5953 51.138L43.595 51.1382L43.5945 51.1385C43.4487 51.2258 43.2842 51.3242 43.0878 51.4398L43.8 52.1481L43.8006 52.1487C45.3384 53.6775 46.8391 55.1694 48.307 56.679C52.7749 61.1343 52.7749 66.2763 48.2802 70.7483C47.0755 71.9586 45.8287 73.1368 44.5351 74.3594L44.5349 74.3595L44.5341 74.3603L44.5306 74.3636L44.5279 74.3662C43.9977 74.8672 43.4596 75.3758 42.9134 75.897C43.6356 76.2446 44.3388 76.6304 45.0198 77.0527C45.9859 77.7462 46.7003 77.7026 47.5422 76.7412C48.3177 75.8567 49.1635 75.0345 50.0093 74.2124C50.6051 73.6333 51.2008 73.0542 51.772 72.4534C55.9514 68.0517 56.5786 61.3252 52.9661 56.488C51.6689 54.7484 50.1173 53.2004 48.5699 51.6566C47.8766 50.9649 47.1842 50.2741 46.5158 49.5673C46.2703 49.6964 46.0389 49.8178 45.8181 49.9338C45.1851 50.2661 44.6386 50.553 44.0941 50.8436C43.9395 50.932 43.7827 51.0258 43.5953 51.138ZM80.1021 26.9671L80.1026 26.9679C80.3951 27.44 80.6648 27.8753 80.9032 28.3263L81.6327 29.6967C83.433 33.0784 85.2333 36.46 86.9946 39.8598C88.1366 42.117 89.9712 43.9503 92.2306 45.0923C95.2869 46.6769 98.3299 48.2879 101.372 49.8986L101.378 49.9015C102.083 50.275 102.789 50.6484 103.494 51.0215C103.967 51.2731 104.43 51.5456 104.99 51.8765L104.991 51.8767C105.296 52.057 105.631 52.2545 106.013 52.4754L105.849 52.5189C103.756 53.073 102.029 53.5302 100.271 52.6194C96.9478 50.8998 93.6371 49.1579 90.3388 47.3936C87.8986 46.1051 85.9096 44.1046 84.6365 41.6587C83.022 38.6037 81.403 35.5486 79.7796 32.4935C78.7397 30.5372 78.6861 28.7886 79.6823 26.2829C79.8258 26.5211 79.9653 26.7463 80.1 26.9638L80.1001 26.9638L80.1021 26.9671ZM37.7178 75.3779C35.5577 74.0748 33.4076 74.115 30.6169 74.9056C31.0056 75.1254 31.344 75.3196 31.6511 75.4959L31.6533 75.4972L31.655 75.4981C32.2073 75.8152 32.6584 76.0741 33.1192 76.3192C34.0602 76.8182 35.0005 77.319 35.9407 77.82L35.9419 77.8206L35.9431 77.8212L35.9442 77.8218L35.9454 77.8224L35.9466 77.823L35.9477 77.8237L35.9489 77.8243L35.9501 77.8249L35.9512 77.8255L35.9524 77.8261L35.9548 77.8274L35.9572 77.8287L35.9578 77.829C38.7554 79.3193 41.5535 80.8099 44.376 82.2518C46.7363 83.4406 48.6475 85.361 49.8234 87.7254C51.3726 90.7364 52.9646 93.725 54.5565 96.7134L54.5567 96.7137L54.5569 96.7141L54.5571 96.7144L54.5573 96.7147L54.5574 96.7151L54.5576 96.7154L54.5578 96.7158L54.558 96.7161L54.5582 96.7165L54.5584 96.7168L54.5585 96.7171L54.5587 96.7175L54.5589 96.7178L54.5591 96.7182L54.5593 96.7185L54.5595 96.7189L54.5596 96.7192L54.5602 96.7202L54.5607 96.7212C55.0112 97.567 55.4618 98.4127 55.9113 99.2589C56.1297 99.6676 56.3764 100.06 56.6235 100.454L56.6236 100.454L56.6239 100.455L56.6243 100.455C56.7374 100.635 56.8506 100.816 56.9612 100.998C57.6421 98.8067 58.162 96.8538 56.9109 94.7869C55.3516 92.2098 53.999 89.5044 52.6504 86.8068L52.5101 86.5262C51.0368 83.4884 48.5862 81.0316 45.55 79.5485L45.4495 79.4982L45.4493 79.4981C42.8363 78.1917 40.2182 76.8828 37.7178 75.3779ZM33.9414 50.5998L33.9417 50.5997C36.2032 49.3419 38.3721 48.1357 40.6419 47.1688C45.9115 44.9277 49.5877 41.3501 51.7814 36.054C52.567 34.1569 53.5773 32.3515 54.5875 30.5462L54.5875 30.5462C55.0222 29.7694 55.4569 28.9927 55.8736 28.2086C56.0867 27.8191 56.3148 27.4391 56.6016 26.961L56.6018 26.9607L56.6019 26.9605C56.7664 26.6864 56.9502 26.38 57.1616 26.0212L57.2235 26.3011C57.7265 28.5731 58.1255 30.3754 57.0845 32.2519C55.4074 35.2668 53.804 38.3285 52.2141 41.3936C50.8631 44.0476 48.708 46.2081 46.0557 47.5674C43.8897 48.697 41.7342 49.837 39.5778 50.9774L39.5721 50.9804L39.5711 50.9809L39.5701 50.9815L39.5691 50.982L39.5681 50.9825L39.5671 50.983L39.5661 50.9836L39.5651 50.9841C38.7202 51.4309 37.8752 51.8778 37.0294 52.3242C35.1577 53.309 33.2827 53.3626 30.7536 52.3443C31.8481 51.764 32.9045 51.1765 33.9414 50.5998ZM79.9371 94.5258C78.6793 96.6496 78.847 98.7132 79.5715 101.37C79.7738 101.015 79.9551 100.701 80.1207 100.414C80.4713 99.8067 80.7519 99.3207 81.0139 98.827C81.4383 98.0301 81.8634 97.2336 82.2886 96.4372C83.856 93.5009 85.4232 90.565 86.9509 87.6084C88.113 85.3015 89.9877 83.4294 92.2976 82.2688C95.2822 80.7379 98.2402 79.1664 101.197 77.5954L101.198 77.5949L101.204 77.5918C102.037 77.1495 102.869 76.7072 103.702 76.2658C104.187 76.0156 104.652 75.7407 105.216 75.4074C105.482 75.2499 105.771 75.0795 106.094 74.8924C103.444 74.2057 101.371 73.998 99.2409 75.2609C97.2447 76.4378 95.1855 77.4955 93.1274 78.5528L93.1271 78.5529L93.1268 78.5531L93.1266 78.5532L93.1263 78.5533L93.126 78.5535L93.1257 78.5536L93.1255 78.5537L93.1252 78.5539L93.1249 78.554L93.1246 78.5542L93.1244 78.5543L93.1241 78.5544L93.1238 78.5546L93.1235 78.5547L93.1233 78.5548L93.123 78.555C92.2535 79.0017 91.3841 79.4483 90.5198 79.9038C87.9728 81.2203 85.8981 83.2945 84.5828 85.8397C84.1795 86.608 83.7821 87.3799 83.3846 88.1518L83.3845 88.152L83.3844 88.1522L83.3843 88.1524L83.3842 88.1526L83.384 88.1528L83.3839 88.153L83.3838 88.1532L83.3837 88.1534L83.3836 88.1536L83.3835 88.1538L83.3834 88.154L83.3832 88.1542L83.3831 88.1544L83.383 88.1547L83.3829 88.1549L83.3828 88.1551C82.2767 90.3032 81.1705 92.4517 79.9371 94.5258ZM49.1723 90.781C49.3146 91.0476 49.4684 91.3069 49.6207 91.5634C49.9925 92.19 50.3546 92.8002 50.514 93.4609C50.6348 93.9466 50.1954 94.7405 49.7727 95.166C47.1497 97.8123 46.1937 100.891 47.1799 104.502C47.4618 105.334 47.7979 106.146 48.1862 106.934C48.1386 106.964 48.0975 106.995 48.0604 107.024C47.9903 107.077 47.9346 107.119 47.8776 107.122C43.8726 107.279 43.3963 106.86 43.1447 102.784C42.8361 97.6884 45.2646 93.9433 49.1723 90.781ZM106.862 38.5166C102.042 38.4262 98.5132 40.8347 95.4575 44.5196C95.9522 44.7363 96.4279 44.9941 96.8797 45.29C98.1543 46.3151 99.1103 46.1442 100.21 44.888C100.931 44.0274 101.838 43.3423 102.863 42.8848C103.889 42.4274 105.005 42.2097 106.127 42.2484C107.456 42.2931 108.774 42.594 110.084 42.8934L110.084 42.8935L110.085 42.8935L110.085 42.8935L110.085 42.8936L110.085 42.8936L110.085 42.8936L110.085 42.8937L110.086 42.8937L110.086 42.8937L110.086 42.8938L110.086 42.8938L110.086 42.8938L110.086 42.8939L110.087 42.8939C110.641 43.0205 111.194 43.1468 111.746 43.2533C112.058 39.1866 111.648 38.7478 107.362 38.5166H106.862ZM88.5547 20.4336C88.5582 20.4308 88.5618 20.4278 88.5655 20.4244C88.5714 20.4191 88.5775 20.4131 88.5838 20.407C88.6075 20.3838 88.6339 20.3578 88.662 20.3532C92.563 19.9244 93.1299 20.3699 93.5022 24.2892C93.9987 29.515 91.54 33.3338 87.5451 36.6033C87.3972 36.3296 87.2401 36.0655 87.0854 35.8054C86.7136 35.1804 86.3556 34.5786 86.1732 33.9234C86.0457 33.4779 86.4382 32.704 86.844 32.3222C89.3463 29.8701 90.4264 26.9624 89.6884 23.5288C89.5288 22.8379 89.2519 22.1661 88.972 21.4871L88.972 21.487L88.972 21.4869L88.9719 21.4868L88.9719 21.4867L88.9718 21.4866L88.9718 21.4864L88.9717 21.4863L88.9717 21.4862L88.9716 21.4861L88.9716 21.486L88.9715 21.4859L88.9715 21.4858L88.9715 21.4857C88.8282 21.138 88.6841 20.7885 88.5547 20.4336ZM85.7837 94.0802C89.9799 97.7315 91.1404 101.912 88.3698 107.111C89.0502 107.065 89.7331 107.071 90.4126 107.128C92.1568 107.419 92.831 106.609 93.2201 104.977C94.4712 99.7046 92.2507 94.04 87.491 90.8509L85.7837 94.0802ZM24.8976 83.7228C29.6807 86.1783 33.7193 85.5418 37.2748 81.8235C37.5632 81.5253 38.3448 81.4617 38.7909 81.6091C39.3878 81.8053 39.9443 82.1278 40.4997 82.4497C40.7122 82.5728 40.9245 82.6958 41.1389 82.8117C37.637 87.6656 32.3172 89.7525 27.051 88.5332C25.4577 88.1647 24.5353 87.5618 24.854 85.7696C24.9219 85.0895 24.9364 84.4052 24.8976 83.7228ZM43.262 27.1669C43.7115 31.1331 46.0292 33.9906 49.0481 36.5465C50.9623 33.7862 50.9539 33.7759 49.039 31.4249L48.9542 31.3207C46.6062 28.4231 46.1668 25.214 47.6125 21.7636C47.7316 21.4815 47.8566 21.2037 47.9874 20.913L47.9876 20.9126L47.9881 20.9116L47.9882 20.9114L47.9884 20.911L47.9888 20.91L47.9891 20.9093L47.9892 20.9091C48.0566 20.7593 48.1256 20.6061 48.1961 20.4471C43.9731 20.0518 43.5806 20.3466 43.1882 24.3363C43.1139 25.2798 43.1386 26.2285 43.262 27.1669ZM41.236 44.5528L37.9287 46.2981C34.3094 42.0773 30.0562 40.9383 25.0819 43.5646C25.0512 43.5101 25.0254 43.4698 25.0049 43.4379C24.9738 43.3895 24.9551 43.3604 24.951 43.3301C24.5385 39.5415 25.0986 38.8447 28.9761 38.5465C34.1451 38.1479 37.979 40.533 41.236 44.5528ZM111.857 85.052V83.7456C107.325 85.7924 103.703 85.8225 101.043 83.1594C99.1139 81.2332 97.6582 81.2466 95.7597 82.7172C95.6813 82.7915 95.6105 82.8735 95.5483 82.9617C98.9127 87.129 103.052 89.514 108.606 88.7369C111.776 88.298 111.89 88.1741 111.857 85.052ZM74.7655 76.0411L80.7261 70.1186L82.8325 73.2038L77.8649 78.0812L74.7655 76.0411ZM53.8919 54.1901L55.7166 56.9136C58.2586 55.6677 60.3105 53.609 61.5463 51.0647L58.8294 49.3094L53.8919 54.1901ZM61.5764 76.3125L58.8393 78.1281L53.9354 73.1938C54.2713 72.6976 54.6891 72.0764 55.1474 71.3949L55.1491 71.3924L55.74 70.5139C58.3295 71.7768 60.1777 73.6963 61.5764 76.3125ZM74.792 51.3528L80.7189 57.282L82.7717 54.1834L77.8645 49.2457L74.792 51.3528ZM63.3645 105.999C63.5867 105.314 63.7677 104.719 63.9123 104.244L63.9124 104.244C63.9861 104.002 64.0503 103.791 64.1058 103.614H72.582C72.7009 103.973 72.8838 104.532 73.1037 105.205L73.1072 105.216L73.3502 105.959C70.0227 107.195 66.806 107.148 63.3645 105.999ZM108.341 67.9684L110.689 68.6718C111.905 65.4693 111.913 61.9344 110.713 58.7261L108.341 59.4564V67.9684ZM72.6249 23.7533H64.1051C64.0354 23.5289 63.9488 23.2539 63.8495 22.9382L63.8486 22.9354L63.8482 22.9342C63.7135 22.5063 63.5554 22.004 63.3839 21.452C66.6711 20.169 69.8878 20.246 73.2991 21.3783L72.6249 23.7533ZM26.0381 68.6719L28.3492 67.9584V59.4364L25.9811 58.7463C24.844 62.133 24.7467 65.3757 26.0381 68.6719Z" fill="white"/>
<path d="M10.8628 176.969L13.6553 169.106H24.8796L27.6721 176.969H31.1966L21.0026 149.206H17.5323L7.33832 176.969H10.8628ZM14.7127 166.124L19.159 153.598H19.3759L23.8222 166.124H14.7127ZM50.7034 156.147H53.9568C53.8077 151.958 49.9443 148.827 44.5762 148.827C39.2623 148.827 35.0871 151.918 35.0871 156.581C35.0871 160.322 37.7983 162.545 42.1361 163.792L45.5522 164.769C48.4803 165.582 51.083 166.612 51.083 169.377C51.083 172.414 48.1549 174.42 44.3051 174.42C40.9975 174.42 38.0694 172.956 37.7983 169.811H34.328C34.6533 174.366 38.3405 177.457 44.3051 177.457C50.7034 177.457 54.3364 173.932 54.3364 169.432C54.3364 164.226 49.4021 162.545 46.5282 161.786L43.7086 161.027C41.6481 160.485 38.3405 159.4 38.3405 156.418C38.3405 153.761 40.7806 151.809 44.4678 151.809C47.8296 151.809 50.3781 153.409 50.7034 156.147ZM58.3455 152.189H67.0755V176.969H70.4373V152.189H79.1673V149.206H58.3455V152.189ZM84.3558 176.969H87.7176V166.124H93.7906C94.0347 166.124 94.2651 166.124 94.4956 166.111L100.352 176.969H104.256L97.9794 165.501C101.517 164.294 103.171 161.407 103.171 157.719C103.171 152.812 100.243 149.206 93.7364 149.206H84.3558V176.969ZM87.7176 163.088V152.189H93.628C98.1285 152.189 99.8637 154.385 99.8637 157.719C99.8637 161.054 98.1285 163.088 93.6822 163.088H87.7176ZM109.912 176.969L112.704 169.106H123.929L126.721 176.969H130.246L120.052 149.206H116.581L106.387 176.969H109.912ZM113.762 166.124L118.208 153.598H118.425L122.871 166.124H113.762Z" fill="white"/>
<path d="M6.56102 198.095H7.89853L4.0306 192.907L7.77201 188.841H6.4345L2.72924 192.853H2.24123V188.841H1.12062V198.095H2.24123V193.847H3.37992L6.56102 198.095ZM8.58762 198.095H8.94911C10.4854 198.095 10.9283 196.902 11.0277 194.624L11.1361 192.148H13.6846V198.095H14.751V191.154H10.1239L9.99743 194.227C9.90705 196.558 9.67209 197.101 8.84066 197.101H8.58762V198.095ZM17.1459 200.697C18.1083 200.697 18.7861 200.187 19.1883 199.107L22.1435 191.172L20.9777 191.154L19.0618 196.685H18.9895L17.0736 191.154H15.9168L18.4834 198.131L18.2846 198.673C17.896 199.73 17.417 199.83 16.6398 199.631L16.3687 200.571C16.4771 200.625 16.7844 200.697 17.1459 200.697ZM28.7056 188.551C28.3667 188.836 27.8606 188.836 27.1512 188.832C26.9208 188.832 26.6677 188.832 26.3921 188.841C24.2774 188.895 23.229 190.503 23.229 193.594V194.335C23.229 196.902 24.4762 198.239 26.3379 198.239C28.195 198.239 29.4286 196.893 29.4286 194.715C29.4286 192.528 28.1769 191.371 26.5547 191.371C25.6013 191.371 24.7112 191.769 24.2412 192.636H24.1508C24.2954 190.847 24.9642 189.889 26.4102 189.835C27.6934 189.78 28.6152 189.817 29.2478 189.202L28.7056 188.551ZM26.3379 197.281C25.0726 197.281 24.2954 196.269 24.2954 194.715C24.318 193.197 25.0817 192.329 26.3198 192.329C27.5895 192.329 28.3622 193.197 28.3622 194.715C28.3622 196.278 27.594 197.281 26.3379 197.281ZM34.6385 200.697H35.7049V197.028H35.7953C36.0303 197.408 36.4821 198.239 37.8196 198.239C39.5548 198.239 40.7658 196.848 40.7658 194.643C40.7658 192.455 39.5548 191.064 37.8016 191.064C36.446 191.064 36.0303 191.895 35.7953 192.257H35.6688V191.154H34.6385V200.697ZM35.6869 194.624C35.6869 193.07 36.3737 192.022 37.675 192.022C39.0306 192.022 39.6994 193.16 39.6994 194.624C39.6994 196.107 39.0126 197.281 37.675 197.281C36.3918 197.281 35.6869 196.197 35.6869 194.624ZM45.3025 198.239C46.7123 198.239 47.7425 197.534 48.0679 196.486L47.0376 196.197C46.7665 196.92 46.1384 197.281 45.3025 197.281C44.0508 197.281 43.1878 196.473 43.138 194.986H48.1763V194.534C48.1763 191.949 46.64 191.064 45.194 191.064C43.3143 191.064 42.0671 192.546 42.0671 194.679C42.0671 196.811 43.2962 198.239 45.3025 198.239ZM43.138 194.064C43.2103 192.984 43.974 192.022 45.194 192.022C46.3508 192.022 47.0918 192.889 47.0918 194.064H43.138ZM51.8409 198.257C53.0519 198.257 53.6845 197.607 53.9014 197.155H53.9556V198.095H55.022V193.522C55.022 191.317 53.3411 191.064 52.4554 191.064C51.4071 191.064 50.2142 191.425 49.672 192.69L50.6841 193.052C50.9191 192.546 51.4749 192.004 52.4916 192.004C53.4721 192.004 53.9556 192.523 53.9556 193.413V193.45C53.9556 193.965 53.4314 193.92 52.1662 194.082C50.8784 194.249 49.4731 194.534 49.4731 196.125C49.4731 197.48 50.5215 198.257 51.8409 198.257ZM52.0036 197.299C51.1541 197.299 50.5395 196.92 50.5395 196.179C50.5395 195.365 51.2806 195.112 52.112 195.004C52.5639 194.95 53.7749 194.823 53.9556 194.606V195.582C53.9556 196.45 53.2688 197.299 52.0036 197.299ZM56.3539 198.095H56.7153C58.2517 198.095 58.6945 196.902 58.7939 194.624L58.9024 192.148H61.4509V198.095H62.5172V191.154H57.8902L57.7637 194.227C57.6733 196.558 57.4383 197.101 56.6069 197.101H56.3539V198.095ZM65.5402 193.666V191.154H64.4738V198.095H67.3838C69.0105 198.095 69.8961 197.101 69.8961 195.853C69.8961 194.588 69.0105 193.666 67.3838 193.666H65.5402ZM65.5402 194.661H67.3838C68.2288 194.661 68.8297 195.176 68.8297 195.908C68.8297 196.608 68.2288 197.101 67.3838 197.101H65.5402V194.661ZM72.5858 191.154H71.5194V198.095H72.5858V195.131H75.9115V198.095H76.9779V191.154H75.9115V194.136H72.5858V191.154ZM79.9918 193.666V191.154H78.9255V198.095H81.8354C83.4621 198.095 84.3478 197.101 84.3478 195.853C84.3478 194.588 83.4621 193.666 81.8354 193.666H79.9918ZM85.4503 198.095H86.5167V191.154H85.4503V198.095ZM79.9918 194.661H81.8354C82.6804 194.661 83.2814 195.176 83.2814 195.908C83.2814 196.608 82.6804 197.101 81.8354 197.101H79.9918V194.661ZM89.264 191.154H88.035L90.2401 194.624L88.035 198.095H89.264L90.9269 195.402L92.5897 198.095H93.8188L91.5776 194.624L93.8188 191.154H92.5897L90.9269 193.992L89.264 191.154ZM98.3046 198.095H98.6661C100.202 198.095 100.645 196.902 100.745 194.624L100.853 192.148H103.402V198.095H104.468V191.154H99.841L99.7144 194.227C99.6241 196.558 99.3891 197.101 98.5577 197.101H98.3046V198.095ZM106.985 191.154H105.919V198.095H106.985V195.185H108.765C108.955 197.042 110.161 198.239 111.883 198.239C113.763 198.239 115.028 196.811 115.028 194.661C115.028 192.492 113.763 191.064 111.883 191.064C110.143 191.064 108.928 192.288 108.761 194.191H106.985V191.154ZM111.883 197.281C110.455 197.281 109.805 196.052 109.805 194.661C109.805 193.269 110.455 192.022 111.883 192.022C113.311 192.022 113.962 193.269 113.962 194.661C113.962 196.052 113.311 197.281 111.883 197.281ZM116.022 200.083H117.089V198.095H122.222V200.083H123.288V197.101H122.222V191.154H117.811L117.577 193.901C117.409 195.844 117.161 196.513 116.6 197.101H116.022V200.083ZM117.811 197.101C118.299 196.459 118.476 195.352 118.625 193.901L118.806 192.148H121.155V197.101H117.811ZM127.613 198.239C129.023 198.239 130.054 197.534 130.379 196.486L129.349 196.197C129.078 196.92 128.449 197.281 127.613 197.281C126.362 197.281 125.499 196.473 125.449 194.986H130.487V194.534C130.487 191.949 128.951 191.064 127.505 191.064C125.625 191.064 124.378 192.546 124.378 194.679C124.378 196.811 125.607 198.239 127.613 198.239ZM125.449 194.064C125.521 192.984 126.285 192.022 127.505 192.022C128.662 192.022 129.403 192.889 129.403 194.064H125.449ZM133.176 196.522V191.154H132.11V198.095H133.357L136.682 192.727V198.095H137.749V191.154H136.52L133.176 196.522ZM135.815 188.841C135.815 189.311 135.562 189.726 134.929 189.726C134.297 189.726 134.062 189.311 134.062 188.841H133.067C133.067 189.817 133.79 190.503 134.929 190.503C136.086 190.503 136.809 189.817 136.809 188.841H135.815Z" fill="white"/>
</svg>
