<svg width="20" height="22" viewBox="0 0 20 22" fill="none" xmlns="http://www.w3.org/2000/svg">
<path d="M0.428467 3.50001C0.428467 2.76119 0.721961 2.05263 1.24438 1.53021C1.76681 1.00779 2.47536 0.714294 3.21418 0.714294H14.7856C15.5244 0.714294 16.233 1.00779 16.7554 1.53021C17.2778 2.05263 17.5713 2.76119 17.5713 3.50001V13.8963C17.4685 13.9649 17.3699 14.0454 17.279 14.1363L16.2856 15.1297V3.50001C16.2856 3.10218 16.1276 2.72065 15.8463 2.43935C15.565 2.15804 15.1834 2.00001 14.7856 2.00001H3.21418C2.81636 2.00001 2.43483 2.15804 2.15352 2.43935C1.87222 2.72065 1.71418 3.10218 1.71418 3.50001V18.5C1.71418 19.328 2.38618 20 3.21418 20H10.1296L11.4153 21.2857H3.21418C2.47536 21.2857 1.76681 20.9922 1.24438 20.4698C0.721961 19.9474 0.428467 19.2388 0.428467 18.5V3.50001Z" fill="#CECECE"/>
<path d="M5.99979 6.50002C5.99979 6.78418 5.88691 7.0567 5.68598 7.25763C5.48504 7.45856 5.21252 7.57145 4.92836 7.57145C4.6442 7.57145 4.37168 7.45856 4.17075 7.25763C3.96982 7.0567 3.85693 6.78418 3.85693 6.50002C3.85693 6.21586 3.96982 5.94333 4.17075 5.7424C4.37168 5.54147 4.6442 5.42859 4.92836 5.42859C5.21252 5.42859 5.48504 5.54147 5.68598 5.7424C5.88691 5.94333 5.99979 6.21586 5.99979 6.50002Z" fill="#CECECE"/>
<path d="M4.92836 12.0714C5.21252 12.0714 5.48504 11.9586 5.68598 11.7576C5.88691 11.5567 5.99979 11.2842 5.99979 11C5.99979 10.7159 5.88691 10.4433 5.68598 10.2424C5.48504 10.0415 5.21252 9.92859 4.92836 9.92859C4.6442 9.92859 4.37168 10.0415 4.17075 10.2424C3.96982 10.4433 3.85693 10.7159 3.85693 11C3.85693 11.2842 3.96982 11.5567 4.17075 11.7576C4.37168 11.9586 4.6442 12.0714 4.92836 12.0714V12.0714Z" fill="#CECECE"/>
<path d="M4.92836 16.5714C5.21252 16.5714 5.48504 16.4586 5.68598 16.2576C5.88691 16.0567 5.99979 15.7842 5.99979 15.5C5.99979 15.2159 5.88691 14.9433 5.68598 14.7424C5.48504 14.5415 5.21252 14.4286 4.92836 14.4286C4.6442 14.4286 4.37168 14.5415 4.17075 14.7424C3.96982 14.9433 3.85693 15.2159 3.85693 15.5C3.85693 15.7842 3.96982 16.0567 4.17075 16.2576C4.37168 16.4586 4.6442 16.5714 4.92836 16.5714V16.5714Z" fill="#CECECE"/>
<path d="M7.9285 5.85718C7.75801 5.85718 7.59449 5.92491 7.47393 6.04547C7.35337 6.16603 7.28564 6.32954 7.28564 6.50003C7.28564 6.67053 7.35337 6.83404 7.47393 6.9546C7.59449 7.07516 7.75801 7.14289 7.9285 7.14289H13.4999C13.6704 7.14289 13.8339 7.07516 13.9545 6.9546C14.0751 6.83404 14.1428 6.67053 14.1428 6.50003C14.1428 6.32954 14.0751 6.16603 13.9545 6.04547C13.8339 5.92491 13.6704 5.85718 13.4999 5.85718H7.9285Z" fill="#CECECE"/>
<path d="M7.28564 11C7.28564 10.8295 7.35337 10.666 7.47393 10.5455C7.59449 10.4249 7.75801 10.3572 7.9285 10.3572H13.4999C13.6704 10.3572 13.8339 10.4249 13.9545 10.5455C14.0751 10.666 14.1428 10.8295 14.1428 11C14.1428 11.1705 14.0751 11.334 13.9545 11.4546C13.8339 11.5752 13.6704 11.6429 13.4999 11.6429H7.9285C7.75801 11.6429 7.59449 11.5752 7.47393 11.4546C7.35337 11.334 7.28564 11.1705 7.28564 11V11Z" fill="#CECECE"/>
<path d="M7.9285 14.8572C7.75801 14.8572 7.59449 14.9249 7.47393 15.0455C7.35337 15.166 7.28564 15.3295 7.28564 15.5C7.28564 15.6705 7.35337 15.834 7.47393 15.9546C7.59449 16.0752 7.75801 16.1429 7.9285 16.1429H13.4999C13.6704 16.1429 13.8339 16.0752 13.9545 15.9546C14.0751 15.834 14.1428 15.6705 14.1428 15.5C14.1428 15.3295 14.0751 15.166 13.9545 15.0455C13.8339 14.9249 13.6704 14.8572 13.4999 14.8572H7.9285Z" fill="#CECECE"/>
<path d="M19.0969 15.9543L13.954 21.0971C13.8335 21.2175 13.6701 21.2851 13.4998 21.2851C13.3294 21.2851 13.166 21.2175 13.0455 21.0971L10.4758 18.5274C10.3622 18.4056 10.3004 18.2444 10.3033 18.0778C10.3063 17.9113 10.3737 17.7524 10.4915 17.6346C10.6093 17.5168 10.7682 17.4494 10.9347 17.4464C11.1013 17.4435 11.2625 17.5053 11.3843 17.6189L13.4998 19.7334L18.1883 15.0449C18.2477 14.9835 18.3186 14.9345 18.3971 14.9009C18.4755 14.8672 18.5599 14.8495 18.6452 14.8488C18.7306 14.8481 18.8152 14.8644 18.8942 14.8968C18.9732 14.9292 19.045 14.9769 19.1053 15.0373C19.1656 15.0977 19.2133 15.1695 19.2456 15.2485C19.2779 15.3275 19.2941 15.4122 19.2933 15.4976C19.2926 15.5829 19.2748 15.6673 19.2411 15.7457C19.2073 15.8241 19.1583 15.895 19.0969 15.9543V15.9543Z" fill="#CECECE"/>
</svg>
