<svg width="22" height="18" viewBox="0 0 22 18" fill="none" xmlns="http://www.w3.org/2000/svg">
<path d="M0.717773 3.64287C0.717773 2.79039 1.05642 1.97283 1.65922 1.37003C2.26201 0.767236 3.07958 0.428589 3.93206 0.428589H18.0715C18.924 0.428589 19.7415 0.767236 20.3443 1.37003C20.9471 1.97283 21.2858 2.79039 21.2858 3.64287V14.3572C21.2858 15.2096 20.9471 16.0272 20.3443 16.63C19.7415 17.2328 18.924 17.5714 18.0715 17.5714H3.93292C3.08043 17.5714 2.26287 17.2328 1.66007 16.63C1.05728 16.0272 0.718631 15.2096 0.718631 14.3572V3.64287H0.717773ZM5.62406 4.7143C5.45856 4.7143 5.29985 4.78005 5.18282 4.89707C5.0658 5.01409 5.00006 5.17281 5.00006 5.3383V5.37602C5.00006 5.72059 5.27949 6.00002 5.62406 6.00002H10.3761C10.5416 6.00002 10.7003 5.93427 10.8173 5.81725C10.9343 5.70023 11.0001 5.54151 11.0001 5.37602V5.3383C11.0001 5.17281 10.9343 5.01409 10.8173 4.89707C10.7003 4.78005 10.5416 4.7143 10.3761 4.7143H5.62406ZM5.00006 8.76687V8.80459C5.00006 9.14916 5.27949 9.42859 5.62406 9.42859H14.6618C14.8273 9.42859 14.986 9.36285 15.103 9.24582C15.22 9.1288 15.2858 8.97008 15.2858 8.80459V8.76687C15.2858 8.60138 15.22 8.44266 15.103 8.32564C14.986 8.20862 14.8273 8.14287 14.6618 8.14287H5.62406C5.45856 8.14287 5.29985 8.20862 5.18282 8.32564C5.0658 8.44266 5.00006 8.60138 5.00006 8.76687ZM5.62406 11.5714C5.54211 11.5714 5.46097 11.5876 5.38526 11.6189C5.30956 11.6503 5.24077 11.6963 5.18282 11.7542C5.12488 11.8122 5.07892 11.8809 5.04756 11.9566C5.0162 12.0324 5.00006 12.1135 5.00006 12.1954V12.2332C5.00006 12.5777 5.27949 12.8572 5.62406 12.8572H12.0903C12.2558 12.8572 12.4146 12.7914 12.5316 12.6744C12.6486 12.5574 12.7143 12.3987 12.7143 12.2332V12.1954C12.7143 12.1135 12.6982 12.0324 12.6668 11.9566C12.6355 11.8809 12.5895 11.8122 12.5316 11.7542C12.4736 11.6963 12.4048 11.6503 12.3291 11.6189C12.2534 11.5876 12.1723 11.5714 12.0903 11.5714H5.62406Z" fill="#CECECE"/>
</svg>
