<svg width="22" height="21" viewBox="0 0 13 21" fill="none" xmlns="http://www.w3.org/2000/svg">
<path d="M1.71502 11.5429L11.1436 11.5437C11.5759 11.5438 11.9923 11.7073 12.3092 12.0013C12.6262 12.2954 12.8203 12.6983 12.8527 13.1295L12.8579 13.258V15.4C12.857 19 9.1833 20.1143 6.4293 20.1143C3.73016 20.1143 0.147304 19.0446 0.00501823 15.6126L0.000732422 15.4V13.2572C0.000732422 12.3537 0.700161 11.6132 1.58645 11.548L1.71502 11.5429ZM6.4293 0.400024C7.04845 0.400081 7.66152 0.522086 8.23351 0.759075C8.80551 0.996063 9.32522 1.34339 9.76298 1.78124C10.2007 2.21908 10.548 2.73886 10.7849 3.31089C11.0218 3.88293 11.1436 4.49602 11.1436 5.11517C11.1435 5.73431 11.0215 6.34738 10.7845 6.91938C10.5475 7.49137 10.2002 8.01109 9.76238 8.44885C9.32454 8.88661 8.80476 9.23385 8.23272 9.47073C7.66068 9.70762 7.04759 9.82951 6.42845 9.82945C5.17803 9.82934 3.97887 9.3325 3.09477 8.44824C2.21067 7.56398 1.71405 6.36473 1.71416 5.11431C1.71427 3.86389 2.21111 2.66473 3.09537 1.78063C3.97963 0.896529 5.17888 0.399911 6.4293 0.400024Z" fill="#CECECE"/>
</svg>
